<svg width="24" height="24" viewBox="0 0 24 24" fill="none" xmlns="http://www.w3.org/2000/svg">
<path d="M7.46387 16.4197L8.41237 19.3372C8.43938 19.4204 8.48773 19.495 8.55259 19.5537C8.61746 19.6123 8.69656 19.6529 8.78202 19.6714C8.86748 19.6899 8.95631 19.6857 9.03963 19.6592C9.12295 19.6327 9.19785 19.5847 9.25687 19.5202L13.4859 14.9077" stroke="#D70365" stroke-linecap="round" stroke-linejoin="round"/>
<path d="M18.9431 12.5185C18.9431 12.5185 18.4131 15.327 15.2786 15.327C12.1441 15.327 10.1686 11.4595 7.80763 11.4595C5.01863 11.4595 4.28613 13.8005 4.28613 15.327C4.28613 16.63 4.97813 17.1595 5.89413 17.1595C6.81013 17.1595 8.52013 15.612 9.25313 14.818H13.3031" stroke="#D70365" stroke-linecap="round" stroke-linejoin="round"/>
<path d="M7.8075 11.4596C7.8075 10.1161 6.7285 9.07764 5.039 9.07764C3.3495 9.07764 2.25 9.91264 2.25 12.2736C2.25 14.6346 4.2915 15.1026 4.2915 15.1026" stroke="#D70365" stroke-linecap="round" stroke-linejoin="round"/>
<path d="M3.62861 9.35037C2.99112 7.66937 4.57062 6.02387 7.01362 6.02387C10.7186 6.02387 11.0541 12.0389 14.6066 12.0389C17.5586 12.0389 19.5381 8.21037 18.1896 6.00387C16.3981 3.07187 13.4026 3.61087 12.1401 4.81187" stroke="#D70365" stroke-linecap="round" stroke-linejoin="round"/>
<path d="M7.01367 6.02389C7.68567 3.76389 11.0547 3.69289 12.3882 5.02639C13.7217 6.35989 13.6502 8.26289 11.7792 10.3474M16.5217 11.4594C17.9557 13.1994 21.4807 12.9574 21.7352 9.50689C21.9897 6.05639 18.9687 6.11189 18.3652 6.34289" stroke="#D70365" stroke-linecap="round" stroke-linejoin="round"/>
</svg>
