<svg width="25" height="31" viewBox="0 0 25 31" fill="none" xmlns="http://www.w3.org/2000/svg">
<path fill-rule="evenodd" clip-rule="evenodd" d="M18.6172 0C18.8143 1.803 18.0921 3.61492 17.019 4.91656H17.0191C15.9461 6.21899 14.185 7.23062 12.461 7.09693C12.226 5.32968 13.0967 3.48583 14.0909 2.33375C15.2004 1.03289 17.0706 0.0622907 18.6172 0ZM25.0028 22.587C24.8165 22.5114 20.9278 20.9329 20.8854 16.3592V16.3593C20.8512 12.5433 23.9301 10.6683 24.1933 10.508C24.1988 10.5047 24.2031 10.5021 24.2061 10.5002C22.4003 7.85128 19.588 7.48762 18.5863 7.4458C17.1225 7.29717 15.7024 7.85853 14.5427 8.31694C13.8064 8.60798 13.1751 8.85753 12.7043 8.85753C12.1789 8.85753 11.5298 8.59952 10.8014 8.31003C9.8478 7.93098 8.75834 7.49796 7.6331 7.51945C5.02408 7.55745 2.6202 9.03901 1.27513 11.3788C-1.43251 16.0904 0.583975 23.0704 3.22271 26.8933C4.51393 28.7624 6.05299 30.8674 8.07407 30.7907C8.97853 30.7551 9.62148 30.4807 10.2863 30.197C11.053 29.8697 11.8487 29.5301 13.1082 29.5301C14.3114 29.5301 15.0723 29.86 15.8038 30.1771C16.5024 30.48 17.1743 30.7713 18.1792 30.7527C20.2731 30.714 21.6024 28.8451 22.883 26.9692C24.3154 24.8713 24.9338 22.8381 25.0041 22.607C25.0065 22.5991 25.0082 22.5933 25.0093 22.5897C25.0085 22.5893 25.0063 22.5884 25.0028 22.587Z" fill="black"/>
</svg>
