<svg width="32" height="32" viewBox="0 0 32 32" fill="none" xmlns="http://www.w3.org/2000/svg">
<path d="M2.83689 20.9769L1.01189 9.11491C0.876895 8.23891 1.87489 7.64091 2.58389 8.17291L8.2699 12.4369C8.41769 12.5476 8.5865 12.6271 8.76602 12.6704C8.94554 12.7137 9.132 12.7199 9.31402 12.6888C9.49604 12.6576 9.6698 12.5897 9.82469 12.4891C9.97958 12.3886 10.1123 12.2575 10.2149 12.1039L14.9489 5.00391C15.4489 4.25391 16.5509 4.25391 17.0509 5.00391L21.7849 12.1039C21.8874 12.2575 22.0202 12.3886 22.1751 12.4891C22.33 12.5897 22.5037 12.6576 22.6858 12.6888C22.8678 12.7199 23.0542 12.7137 23.2338 12.6704C23.4133 12.6271 23.5821 12.5476 23.7299 12.4369L29.4159 8.17291C30.1259 7.64091 31.1229 8.23891 30.9879 9.11491L29.1629 20.9769H2.83689ZM27.7899 27.5589H4.20989C4.02959 27.5589 3.85105 27.5234 3.68447 27.4544C3.51789 27.3854 3.36653 27.2843 3.23904 27.1568C2.98155 26.8993 2.83689 26.55 2.83689 26.1859V23.1709H29.1629V26.1859C29.1629 26.9439 28.5479 27.5589 27.7899 27.5589Z" fill="#FFC107"/>
</svg>
