<svg width="32" height="31" viewBox="0 0 32 31" fill="none" xmlns="http://www.w3.org/2000/svg">
<mask id="mask0_41_558" style="mask-type:luminance" maskUnits="userSpaceOnUse" x="0" y="0" width="32" height="31">
<path fill-rule="evenodd" clip-rule="evenodd" d="M0.603516 0H31.3963V30.7928H0.603516V0Z" fill="white"/>
</mask>
<g mask="url(#mask0_41_558)">
<path fill-rule="evenodd" clip-rule="evenodd" d="M31.3963 15.4905C31.3963 6.93531 24.5031 0 15.9999 0C7.4967 0 0.603516 6.93531 0.603516 15.4905C0.603516 23.2222 6.23375 29.6307 13.5942 30.7928V19.9682H9.68497V15.4905H13.5942V12.0777C13.5942 8.19543 15.8928 6.05097 19.4097 6.05097C21.0941 6.05097 22.8561 6.35351 22.8561 6.35351V10.1656H20.9146C19.002 10.1656 18.4056 11.3597 18.4056 12.5847V15.4905H22.6757L21.9931 19.9682H18.4056V30.7928C25.766 29.6307 31.3963 23.2222 31.3963 15.4905Z" fill="#1877F2"/>
</g>
</svg>
