<svg width="31" height="31" viewBox="0 0 31 31" fill="none" xmlns="http://www.w3.org/2000/svg">
<path d="M30.5968 12.381H29.3566V12.3171H15.4999V18.4757H24.2012C22.9317 22.0607 19.5207 24.6342 15.4999 24.6342C10.3983 24.6342 6.26207 20.498 6.26207 15.3964C6.26207 10.2948 10.3983 6.15855 15.4999 6.15855C17.8548 6.15855 19.9972 7.04692 21.6284 8.49803L25.9833 4.14317C23.2335 1.58044 19.5553 0 15.4999 0C6.99724 0 0.103516 6.89373 0.103516 15.3964C0.103516 23.899 6.99724 30.7928 15.4999 30.7928C24.0025 30.7928 30.8963 23.899 30.8963 15.3964C30.8963 14.3641 30.79 13.3564 30.5968 12.381Z" fill="#FFC107"/>
<path d="M2.02832 7.95951L7.07678 11.5473C8.44281 8.26997 11.7511 5.95605 15.6225 5.95605C17.9727 5.95605 20.1109 6.81521 21.7389 8.2186L26.0852 4.00693C23.3408 1.52847 19.6699 0 15.6225 0C9.72049 0 4.60211 3.22892 2.02832 7.95951Z" fill="#FF3D00"/>
<path d="M15.7508 30.7928C19.7322 30.7928 23.3499 29.2418 26.0852 26.7197L21.3145 22.6105C19.7149 23.8487 17.7603 24.5184 15.7508 24.5168C11.7415 24.5168 8.33733 21.9146 7.05487 18.2832L2.02832 22.2253C4.57936 27.3065 9.76005 30.7928 15.7508 30.7928Z" fill="#4CAF50"/>
<path d="M30.5969 12.5732H29.3567V12.5095H15.5V18.6425H24.2013C23.594 20.3416 22.5002 21.8264 21.055 22.9133L21.0573 22.9118L25.8225 26.9273C25.4853 27.2325 30.8964 23.2422 30.8964 15.576C30.8964 14.548 30.7901 13.5445 30.5969 12.5732Z" fill="#1976D2"/>
</svg>
