<svg width="393" height="197" viewBox="0 0 393 197" fill="none" xmlns="http://www.w3.org/2000/svg">
<mask id="mask0_421_7760" style="mask-type:alpha" maskUnits="userSpaceOnUse" x="0" y="0" width="393" height="197">
<path d="M0 0H393V165C393 182.673 378.673 197 361 197H32C14.3269 197 0 182.673 0 165V0Z" fill="#55355C"/>
</mask>
<g mask="url(#mask0_421_7760)">
<path d="M0 0H393V134.741C393 162.355 370.614 184.741 343 184.741H50C22.3858 184.741 0 162.355 0 134.741V0Z" fill="#55355C"/>
<g opacity="0.15">
<path d="M-3.49036 -108.914C62.6369 -108.914 128.764 -108.914 194.899 -108.914C196.378 -107.975 197.516 -106.719 199.397 -106.152C206.567 -104.007 213.698 -101.7 221.358 -100.168C233.493 -97.7397 245.943 -95.6242 259.185 -95.5783C263.659 -95.5616 266.584 -97.0471 266.766 -99.4088C266.853 -100.506 266.576 -101.62 266.386 -102.722C266.031 -104.787 265.627 -106.853 265.24 -108.914C277.359 -108.914 289.478 -108.914 301.596 -108.914C302.387 -108.151 302.916 -107.254 304.007 -106.644C310.071 -103.26 317.343 -100.732 325.565 -99.1334C334.182 -97.4602 342.988 -96.1458 352.466 -96.7007C363.992 -97.3725 374.198 -99.8803 384.293 -102.601C390.925 -104.387 397.819 -104.42 404.617 -103.327C413.969 -101.825 421.542 -98.6577 428.965 -95.403C439.622 -90.7296 448.491 -85.2675 454.634 -78.7122C466.42 -66.1232 467.835 -52.7121 464.831 -39.059C463.638 -33.6262 461.321 -28.2642 459.906 -22.8397C458.602 -17.8742 461.732 -13.2008 472.452 -11.0226C484.721 -8.52734 497.646 -8.48562 510.452 -7.9682C515.82 -7.75122 521.204 -7.66776 526.548 -7.35898C536.619 -6.77898 546.398 -7.42992 554.034 -11.0226C561.433 -14.5027 568.382 -18.3833 574.319 -22.5685C590.92 -34.2729 610.161 -44.7005 629.316 -55.1907C634.414 -57.9822 639.584 -60.7905 643.988 -63.8824C659.347 -74.6689 676.953 -84.3871 694.439 -94.1804C702.115 -98.4825 708.692 -103.269 712.605 -108.914C714.977 -108.914 717.348 -108.914 719.72 -108.914C719.72 -102.935 719.72 -96.9553 719.72 -90.9758C718.724 -90.6587 717.633 -90.4083 716.755 -90.0161C712.55 -88.1342 708.502 -86.148 704.218 -84.3162C689.735 -78.1239 677.672 -70.7173 665.656 -63.2649C658.597 -58.8835 651.284 -54.5731 643.395 -50.6174C631.845 -44.8257 620.138 -39.1425 610.691 -32.3284C602.082 -26.1236 595.821 -19.343 594.959 -11.5317C594.098 -3.7496 599.181 3.23551 606.714 9.73658C620.683 21.7873 637.316 32.8158 654.857 43.4395C670.154 52.7029 683.569 62.5714 693.854 73.6082C697.632 77.6598 701.633 81.6573 705.309 85.7382C708.241 88.9887 710.898 92.306 713.569 95.6192C715.672 98.2313 714.518 100.714 711.585 102.905C708.716 105.054 705.664 107.165 702.226 109.055C692.684 114.305 684.581 120.075 678.423 126.585C670.209 135.26 664.328 144.369 660.043 153.799C656.66 161.235 655.719 168.704 660.17 175.998C667.506 188.024 675.569 199.928 683.372 211.875C686.194 216.202 689.158 220.5 692.059 224.81C685.996 224.81 679.941 224.81 673.877 224.81C669.379 218.822 665.545 212.659 660.217 206.884C652.209 198.193 640.486 190.865 627.371 184.131C623.64 182.215 620.398 179.958 617.561 177.642C612.383 173.423 609.418 168.783 610.019 163.659C610.699 157.834 616.493 153.332 623.774 149.288C634.628 143.259 644.438 136.775 650.873 129.18C658.383 120.317 665.253 111.279 671.49 102.145C677.458 93.3993 676.217 84.5448 669.933 75.8823C662.881 66.1766 650.652 58.6073 635.015 52.4984C619.924 46.6024 606.801 39.6298 594.129 32.361C586.951 28.2425 579.726 24.049 571.497 20.5564C555.504 13.7716 544.137 14.0178 528.437 18.3991C513.986 22.4341 504.721 29.0479 498.484 36.8592C492.879 43.886 489.788 51.2341 488.626 58.8576C487.353 67.1864 491.946 73.7542 507.259 76.4122C516.381 77.9937 525.512 79.5793 534.508 81.361C546.682 83.7729 556.216 87.7578 559.417 94.7763C563.418 103.539 562.856 112.277 557.291 120.835C554.888 124.532 550.366 127.357 543.149 128.742C538.35 129.664 533.528 129.702 528.437 129.347C514.642 128.387 502.824 125.295 492.515 120.505C485.614 117.296 481.377 113.078 478.5 108.584C475.725 104.252 473.432 99.8002 471.748 95.3146C468.713 87.2487 460.997 81.5196 445.883 78.6363C436.127 76.7752 426.578 74.5428 417.258 72.1394C403.763 68.6593 393.012 63.5311 386.894 56.1245C379.004 46.5607 377.565 36.5379 380.293 26.3189C381.558 21.5829 383.534 16.8969 385.131 12.186C386.925 6.86159 381.36 2.90586 371.289 2.03794C360.142 1.07404 350.079 2.65967 340.846 5.70157C331.81 8.68088 323.359 12.1442 314.379 15.1736C298.806 20.4229 282.205 24.0406 263.145 23.3438C257.556 23.1393 253.2 21.3868 252.742 18.6495C252.473 17.0722 252.41 15.4156 253.026 13.8801C254.766 9.53629 256.781 5.22171 258.908 0.927998C263.303 -7.94317 268.023 -16.7517 275.082 -25.1848C280.284 -31.4063 284.861 -37.753 285.193 -44.7506C285.541 -52.0862 282.102 -58.7583 274.197 -64.7629C262.813 -73.4087 246.963 -78.7748 228.006 -81.5371C215.129 -83.4148 202.22 -83.5275 190.204 -79.6886C182.14 -77.1141 177.16 -73.0415 172.551 -68.9272C162.915 -60.3231 153.95 -51.5104 144.195 -42.9438C135.594 -35.3829 123.989 -29.1322 111.294 -23.4448C101.483 -19.0467 91.2617 -14.874 81.981 -10.1839C70.637 -4.45061 60.9847 2.07133 54.1862 9.63226C48.9371 15.4657 43.8699 21.345 38.6999 27.1993C34.5891 31.8561 27.3321 34.5475 18.0672 35.3653C9.42678 36.1289 0.588747 36.3835 -8.17815 36.6547C-18.7712 36.9802 -22.708 39.6382 -19.8779 45.0084C-17.9016 48.768 -14.1071 52.0311 -8.99239 54.7976C5.75086 62.78 31.4112 63.4101 49.1822 56.1829C58.6685 52.3232 69.1745 49.878 80.9375 48.7347C95.3171 47.3368 109.539 45.6177 123.096 42.5924C134.116 40.1305 145.247 37.7897 156.322 35.3987C173.879 31.6099 192.061 30.3581 210.852 31.6892C219.651 32.3109 225.761 36.0747 226.599 40.7565C227.485 45.722 228.085 50.7668 230.346 55.5779C234.844 65.1417 240.568 74.5428 245.461 84.0608C249.445 91.8137 253.88 99.5624 251.833 107.787C250.884 111.605 248.584 115.039 243.2 117.814C235.888 121.578 226.852 123.58 217.319 125.074C207.856 126.56 198.243 127.774 188.844 129.355C178.535 131.091 170.82 134.701 165.112 139.491C157.547 145.838 150.559 152.385 142.543 158.56C126.646 170.807 105.112 179.415 79.2537 185.22C65.965 188.203 52.787 191.408 40.1149 195.055C23.4665 199.841 16.4229 208.09 19.2609 217.808C19.9407 220.137 20.4467 222.478 21.0396 224.814C11.8221 224.814 2.59668 224.814 -6.62082 224.814C-6.81845 223.855 -7.024 222.891 -7.22163 221.927C-8.34417 216.285 -10.2731 210.648 -10.3442 205.002C-10.4154 199.415 -7.4588 193.886 1.58479 190.39C8.92875 187.548 17.0711 185.132 25.4112 183.175C45.6011 178.443 66.3207 174.337 86.4158 169.501C103.159 165.47 116.748 159.132 126.076 150.707C136.124 141.636 138.772 132.189 125.736 123.209C115.199 115.957 105.76 108.413 98.416 100.13C97.1037 98.6527 94.8981 97.3717 92.8902 96.099C85.3328 91.3046 74.9691 89.2516 63.8859 87.8871C51.3482 86.3474 38.7236 85.7716 25.9329 86.7397C17.6087 87.3697 11.1264 89.3267 7.43468 93.5495C3.3872 98.1812 4.45441 103.213 2.86545 108.033C0.620369 114.851 -0.960683 121.774 -4.3046 128.442C-10.0043 139.796 -21.0795 149.998 -31.0322 160.413C-36.7556 166.405 -44.4948 171.554 -55.7597 174.913C-63.2065 177.129 -70.9615 179.052 -78.4636 181.218C-90.1001 184.573 -100.432 188.783 -108.606 194.379C-121.721 203.358 -126.346 213.728 -126.741 224.81C-156.773 224.81 -186.813 224.81 -216.845 224.81C-221.706 218.685 -225.145 212.33 -226.204 205.724C-227.857 195.393 -232.442 185.495 -239.778 175.885C-245.422 168.5 -249.841 160.855 -248.315 152.777C-247.13 146.518 -245.359 140.242 -242.703 134.112C-238.031 123.326 -236.521 112.656 -241.501 101.753C-243.058 98.3356 -242.916 94.5635 -242.197 91.0292C-240.979 85.033 -235.406 79.8171 -229.193 74.8683C-222.347 69.4104 -214.924 64.1737 -203.927 60.7938C-194.07 57.7686 -183.722 56.9173 -174.496 61.04C-169.54 63.2515 -165.579 66.3059 -162.338 69.3311C-153.887 77.2217 -142.607 83.2429 -125.183 84.7034C-115.974 85.4753 -106.314 85.3543 -96.9697 84.9537C-84.6771 84.4238 -73.0327 82.3291 -62.3764 78.945C-50.4711 75.1646 -48.2498 70.8792 -52.566 64.036C-55.4752 59.4168 -59.9416 54.9854 -67.0721 51.7766C-76.2501 47.6498 -85.8866 43.765 -95.7681 40.1139C-105.618 36.4753 -114.164 32.2441 -120.543 26.8906C-128.18 20.4855 -135.5 13.9719 -142.891 7.48749C-154.789 -2.95679 -169.445 -12.0241 -189.485 -18.3499C-200.663 -21.8758 -212.252 -25.0471 -223.24 -28.7316C-231.533 -31.5106 -239.873 -34.444 -246.908 -38.0117C-258.149 -43.7116 -262.987 -51.1056 -262.616 -59.3342C-262.418 -63.6947 -261.999 -68.0676 -261.082 -72.3989C-258.07 -86.6612 -248.149 -98.9749 -224.797 -107.395C-223.793 -107.758 -223.169 -108.409 -222.362 -108.927C-206.03 -108.927 -189.69 -108.927 -173.358 -108.927C-174.488 -108.293 -175.437 -107.504 -176.781 -107.053C-186.994 -103.632 -197.493 -100.431 -207.501 -96.8468C-216.821 -93.5128 -224.457 -89.2441 -230.212 -84.0408C-236.165 -78.6621 -239.398 -72.9038 -240.813 -66.7532C-242.861 -57.7986 -238.639 -49.9706 -226.687 -43.4278C-217.177 -38.2245 -205.532 -34.5275 -194.022 -30.7595C-179.579 -26.0318 -164.963 -21.3876 -153.8 -14.4651C-147.255 -10.4092 -141.476 -6.00285 -135.444 -1.72166C-128.464 3.23134 -122.132 8.47642 -114.543 13.1498C-98.9302 22.7721 -78.5742 27.8002 -54.7953 29.1146C-46.392 29.5778 -40.226 26.7904 -40.8979 22.4717C-41.9651 15.7077 -43.5303 8.9688 -44.6371 2.20484C-45.8071 -4.96803 -46.8585 -12.1534 -47.6095 -19.343C-48.0126 -23.2236 -47.4276 -27.1293 -47.7359 -31.014C-48.313 -38.2579 -43.2616 -44.2749 -34.1864 -49.5283C-26.1468 -54.1892 -20.0914 -59.4218 -18.7396 -65.8311C-17.8937 -69.8202 -17.6802 -73.851 -16.8028 -77.8359C-15.6012 -83.2646 -14.7158 -88.7517 -12.4391 -94.0636C-10.3521 -99.1084 -6.56549 -103.97 -3.49036 -108.914ZM141.215 -71.3641C142.1 -78.6329 135.8 -84.0992 125.08 -88.034C117.246 -90.9132 108.693 -93.325 100.052 -95.499C83.4909 -99.6675 66.1863 -102.826 48.0913 -104.562C40.2414 -105.313 32.2492 -104.871 25.9724 -102.042C12.8893 -96.1458 8.3991 -88.3345 10.5572 -79.5509C11.9248 -73.9929 14.4703 -68.5058 16.6996 -63.0103C19.5534 -55.971 17.0237 -49.5993 8.33586 -44.0454C3.57691 -40.9993 -1.45082 -38.0492 -6.76314 -35.2744C-26.4709 -24.9761 -29.2614 -11.0518 -19.1822 1.68743C-16.7158 4.80862 -12.8502 7.50001 -7.60109 9.4737C6.74691 14.8648 20.4071 11.5225 30.8895 5.61395C39.9489 0.50656 47.8936 -5.17666 57.3167 -10.0754C67.7753 -15.5125 79.1667 -20.4738 90.5107 -25.4143C104.163 -31.3687 117.357 -37.5026 126.187 -45.7729C134.685 -53.7344 140.519 -62.1424 141.215 -71.3641ZM-232.687 154.567C-233.58 162.503 -227.659 169.697 -221.153 176.799C-215.77 182.674 -210.07 188.47 -204.947 194.408C-199.674 200.521 -196.03 207.06 -187.619 212.321C-182.631 215.443 -172.156 218.622 -163.35 214.525C-159.468 212.722 -156.267 210.469 -153.113 208.282C-144.844 202.545 -137.421 196.428 -128.456 191.016C-115.776 183.359 -100.472 177.158 -84.5506 171.462C-67.6887 165.428 -52.9139 158.347 -42.6133 148.95C-37.3485 144.144 -31.8781 139.374 -27.4116 134.359C-20.8582 126.994 -17.1032 119.291 -19.2139 110.958C-21.3878 102.354 -31.7753 96.0156 -47.4592 94.384C-57.1906 93.3742 -66.7954 94.3089 -76.4319 94.8931C-89.2068 95.6651 -101.997 97.0587 -114.756 96.9962C-130.44 96.9169 -146.101 95.6025 -161.777 94.843C-168.559 94.5134 -175.421 93.7665 -182.117 94.0377C-194.56 94.5468 -200.813 99.5123 -204.86 104.899C-212.71 115.352 -219.833 125.963 -226.813 136.591C-230.576 142.303 -233.185 148.199 -232.687 154.567ZM351.439 -13.5721C362.957 -13.9018 376.222 -14.1063 389.431 -14.7113C399.392 -15.1661 408.704 -16.9645 416.807 -20.1441C424.949 -23.3404 431.202 -27.4297 436.135 -32.0906C448.009 -43.311 452.531 -55.053 443.977 -67.4626C438.088 -76.0125 427.131 -81.9711 409.297 -83.0184C401.89 -83.4524 394.032 -83.0977 386.696 -82.2882C368.49 -80.2853 350.419 -79.2755 331.992 -81.4078C322.371 -82.5219 312.624 -83.3314 302.901 -84.1951C295.217 -84.8795 290.703 -82.572 292.395 -78.804C293.509 -76.3087 294.798 -73.8093 296.513 -71.4142C303.367 -61.8378 306.885 -51.9485 307.138 -41.717C307.288 -35.821 307.541 -29.925 307.952 -24.0331C308.363 -18.2331 315.019 -14.6278 326.039 -14.2189C333.913 -13.931 341.794 -13.8142 351.439 -13.5721ZM193.816 114.163C198.994 113.77 204.291 113.62 209.326 112.936C220.251 111.45 228.22 107.808 230.093 101.907C231.429 97.7013 231.248 93.1322 229.667 88.9428C225.05 76.6876 213.872 65.9012 200.457 55.7365C195.682 52.1229 189.579 49.2396 181.405 48.0378C174.33 46.9988 167.112 47.2826 159.982 48.2631C145.99 50.1868 133.95 53.9756 123.974 59.3751C110.993 66.4019 110.068 78.5695 122.796 86.7021C133.152 93.32 144.891 99.3329 155.998 105.625C166.203 111.409 178.765 114.154 193.816 114.163ZM476.27 29.9492C476.27 29.3942 476.27 28.8392 476.27 28.2801C476.239 18.4867 463.282 11.777 444.728 11.6018C429.629 11.4599 419.076 15.5158 410.522 21.4368C404.103 25.8808 400.617 31.0424 399.25 36.5879C396.696 46.9571 404.562 58.5197 425.724 63.3725C433.961 65.2586 442.562 65.7843 451.139 64.4574C459.108 63.2223 463.29 59.713 466.238 55.9075C472.681 47.6039 475.377 38.8662 476.27 29.9492ZM532.342 104.711C533.212 101.165 529.385 98.7278 524.516 96.6623C520.002 94.7471 512.105 94.5092 507.749 95.9697C503.946 97.2423 501.67 100.501 502.634 103.18C503.583 105.813 506.152 107.899 509.86 109.702C514.366 111.893 520.326 112.781 525.03 111.551C530.192 110.194 532.927 107.962 532.342 104.711Z" stroke="white" stroke-opacity="0.3" stroke-width="2" stroke-miterlimit="10"/>
<path d="M21.0083 224.809C20.4233 222.472 19.9095 220.131 19.2297 217.803C16.3996 208.085 23.4352 199.835 40.0837 195.049C52.7557 191.407 65.9338 188.202 79.2225 185.214C105.073 179.406 126.614 170.802 142.512 158.555C150.528 152.375 157.516 145.828 165.081 139.486C170.789 134.695 178.512 131.082 188.813 129.35C198.212 127.769 207.825 126.55 217.287 125.069C226.813 123.575 235.857 121.572 243.169 117.808C248.56 115.034 250.853 111.599 251.802 107.781C253.849 99.557 249.414 91.8082 245.43 84.0554C240.545 74.5374 234.813 65.1363 230.315 55.5725C228.054 50.7614 227.446 45.7165 226.568 40.751C225.738 36.0693 219.627 32.3055 210.821 31.6837C192.03 30.3568 173.84 31.6045 156.291 35.3933C145.207 37.7842 134.085 40.1251 123.065 42.587C109.515 45.6164 95.2859 47.3356 80.9063 48.7292C69.1433 49.8726 58.6372 52.3178 49.151 56.1775C31.38 63.4046 5.71962 62.7746 -9.02364 54.7922C-14.1304 52.0257 -17.9249 48.7626 -19.9091 45.003C-22.7392 39.6327 -18.8024 36.9747 -8.2094 36.6493C0.565409 36.3822 9.39556 36.1277 18.036 35.3599C27.3009 34.5379 34.55 31.8507 38.6686 27.1939C43.8386 21.3396 48.9059 15.4603 54.155 9.62682C60.9535 2.07005 70.6058 -4.45605 81.9498 -10.1893C91.2305 -14.8795 101.452 -19.0522 111.262 -23.4502C123.958 -29.1376 135.563 -35.3883 144.164 -42.9493C153.911 -51.5158 162.884 -60.3286 172.52 -68.9327C177.129 -73.0512 182.109 -77.1195 190.172 -79.6941C202.188 -83.533 215.098 -83.4203 227.975 -81.5426C246.932 -78.7761 262.782 -73.4142 274.165 -64.7683C282.071 -58.7638 285.509 -52.0917 285.162 -44.756C284.83 -37.7584 280.26 -31.4117 275.051 -25.1902C267.991 -16.7572 263.272 -7.9486 258.877 0.922567C256.75 5.21628 254.734 9.53085 252.995 13.8746C252.379 15.4102 252.442 17.0668 252.711 18.644C253.169 21.3813 257.533 23.1339 263.114 23.3383C282.173 24.0352 298.767 20.4174 314.348 15.1682C323.328 12.143 331.779 8.67545 340.814 5.69614C350.048 2.65424 360.111 1.06861 371.258 2.03251C381.329 2.9046 386.894 6.85615 385.1 12.1805C383.511 16.8957 381.526 21.5774 380.262 26.3135C377.534 36.5324 378.973 46.5553 386.862 56.1191C392.973 63.5257 403.724 68.6539 417.226 72.134C426.555 74.5374 436.096 76.774 445.851 78.6308C460.966 81.5142 468.682 87.2391 471.717 95.3091C473.401 99.7948 475.694 104.247 478.468 108.578C481.346 113.072 485.583 117.291 492.484 120.5C502.785 125.29 514.603 128.382 528.406 129.342C533.497 129.696 538.319 129.659 543.117 128.737C550.335 127.347 554.849 124.526 557.26 120.829C562.825 112.275 563.394 103.538 559.386 94.7709C556.185 87.7566 546.651 83.7674 534.477 81.3556C525.489 79.5739 516.358 77.9924 507.228 76.4068C491.923 73.7488 487.322 67.1809 488.595 58.8522C489.765 51.2329 492.848 43.8806 498.453 36.8537C504.682 29.0424 513.955 22.4287 528.406 18.3937C544.105 14.0082 555.481 13.7661 571.465 20.551C579.695 24.0393 586.912 28.2371 594.098 32.3555C606.77 39.6244 619.893 46.597 634.984 52.493C650.628 58.6019 662.858 66.1711 669.901 75.8769C676.194 84.5394 677.435 93.3939 671.459 102.14C665.221 111.274 658.352 120.312 650.842 129.175C644.415 136.765 634.605 143.254 623.743 149.283C616.462 153.326 610.667 157.829 609.988 163.654C609.387 168.778 612.351 173.418 617.529 177.637C620.375 179.952 623.608 182.206 627.34 184.125C640.454 190.86 652.17 198.187 660.186 206.879C665.514 212.658 669.348 218.817 673.846 224.805C668.312 224.805 662.779 224.805 657.245 224.805C652.51 217.703 646.004 211.064 635.269 206.044C626.059 201.738 615.893 197.995 605.948 194.144C596.478 190.476 588.074 186.362 583.315 180.545C579.924 176.401 576.122 172.329 573.434 168.06C566.801 157.524 553.987 150.226 534.793 145.707C520.493 142.34 506.666 138.413 492.532 134.85C475.243 130.489 464.342 123.571 460.223 113.594C458.468 109.334 455.938 105.136 453.156 101.026C450.073 96.4859 445.93 92.0795 438.057 89.3505C427.978 85.858 417.653 82.4948 406.95 79.5781C387.677 74.3246 373.107 66.9765 365.7 56.0148C362.032 50.5861 358.388 45.1491 354.459 39.7746C349.977 33.6407 340.807 31.0036 328.64 32.4015C309.699 34.5713 292.023 38.527 275.391 43.7011C261.059 48.1618 255.019 55.1886 255.92 63.7259C256.41 68.3368 257.944 72.9852 260.173 77.4583C264.031 85.1778 268.924 92.7513 273.138 100.421C276.071 105.77 278.094 111.207 276.047 116.824C273.114 124.864 263.335 129.776 249.414 132.488C237.58 134.795 225.398 136.606 213.445 138.755C199.508 141.259 187.73 145.448 179.255 151.883C168.971 159.694 159.002 167.622 148.868 175.483C140.567 181.922 130.18 187.109 116.63 190.393C103.239 193.639 89.6495 196.681 76.5347 200.219C64.8191 203.378 54.6846 207.693 51.4988 214.916C50.0838 218.124 50.0838 221.504 49.4356 224.805C39.9809 224.809 30.4946 224.809 21.0083 224.809ZM105.009 32.5141C115.349 32.6226 124.772 31.0704 133.982 29.1509C152.338 25.3204 170.378 21.0392 188.971 17.5758C212.347 13.2237 228.655 5.34981 237.533 -6.85118C244.56 -16.511 251.825 -26.1291 258.64 -35.8306C262.331 -41.0799 264.442 -46.4376 261.383 -52.1334C255.462 -63.166 230.932 -70.2137 210.354 -66.6794C200.196 -64.9352 192.995 -61.1423 186.631 -56.9904C175.801 -49.926 165.785 -42.5153 155.144 -35.3716C145.698 -29.0249 134.638 -23.4878 122.851 -18.3553C110.693 -13.0602 98.029 -8.03624 88.1317 -1.45588C79.0169 4.60706 72.3133 11.2041 73.1987 19.2741C73.6098 23.0421 76.6138 26.2175 82.0684 28.6877C88.7483 31.7088 96.7167 32.6101 105.009 32.5141ZM586.944 108.599C588.256 112.217 589.315 116.92 591.75 121.409C594.612 126.68 603.75 128.837 613.608 127.155C619.624 126.129 624.138 124.013 627.853 121.447C636.636 115.376 640.534 108.27 643.055 100.884C645.087 94.9378 645.632 89.0584 641.782 83.2041C637.514 76.7072 629.142 72.6931 616.43 71.483C606.897 70.5734 596.659 71.8419 593.806 78.6058C592.81 80.9717 591.885 83.3585 591.371 85.762C589.853 92.9933 588.549 100.237 586.944 108.599ZM542.224 39.9958C530.295 39.9415 523.528 42.5328 519.085 46.8515C511.504 54.233 516.809 62.6327 531.544 64.6565C536.097 65.2824 540.762 65.9583 545.41 66.0334C551.663 66.1378 558.042 65.8999 563.71 64.1474C569.339 62.4074 571.647 59.5783 570.525 56.2318C569.26 52.4513 566.311 49.0964 561.892 46.0879C556.366 42.32 549.102 40.2461 542.224 39.9958Z" stroke="white" stroke-opacity="0.3" stroke-width="2" stroke-miterlimit="10"/>
<path d="M49.459 224.81C50.0993 221.509 50.1072 218.125 51.5222 214.92C54.708 207.693 64.8426 203.383 76.5581 200.224C89.6729 196.686 103.262 193.644 116.653 190.397C130.203 187.113 140.598 181.927 148.891 175.488C159.033 167.623 168.994 159.699 179.279 151.887C187.753 145.453 199.54 141.264 213.469 138.76C225.422 136.611 237.604 134.8 249.438 132.493C263.359 129.78 273.138 124.869 276.07 116.828C278.118 111.208 276.094 105.775 273.161 100.425C268.948 92.7519 264.054 85.1826 260.197 77.4631C257.967 72.9941 256.426 68.3415 255.944 63.7307C255.042 55.1975 261.082 48.1665 275.414 43.7059C292.055 38.5318 309.723 34.576 328.664 32.4062C340.83 31.0125 350 33.6497 354.482 39.7794C358.411 45.158 362.063 50.5909 365.724 56.0195C373.123 66.9812 387.7 74.3294 406.973 79.5828C417.677 82.4995 428.001 85.8627 438.08 89.3553C445.954 92.0842 450.096 96.4906 453.179 101.03C455.97 105.141 458.492 109.338 460.246 113.599C464.365 123.576 475.266 130.494 492.555 134.854C506.69 138.422 520.516 142.344 534.817 145.712C554.01 150.231 566.817 157.533 573.457 168.065C576.145 172.334 579.947 176.41 583.339 180.55C588.098 186.366 596.493 190.481 605.972 194.149C615.916 198 626.082 201.743 635.292 206.049C646.027 211.069 652.533 217.708 657.269 224.81C650.684 224.81 644.098 224.81 637.505 224.81C635.015 222.869 632.889 220.762 629.964 219.022C619.853 212.997 606.699 209.976 591.758 209.471C581.054 209.108 570.564 210.117 565.196 215.897C562.635 218.651 561.71 221.826 560.05 224.81C518.16 224.81 476.27 224.81 434.381 224.81C432.958 217.086 425.961 210.944 410.602 209.245C402.309 208.327 394.135 208.014 385.621 208.432C374.396 208.987 363.447 209.963 353.146 212.367C342.166 214.929 333.043 218.642 328.474 224.805C320.047 224.805 311.612 224.805 303.185 224.805C304.869 221.53 306.079 218.158 308.332 214.991C312.687 208.87 320.624 204.409 332.869 202.744C343.929 201.242 355.218 200.22 366.38 198.935C380.238 197.341 394.214 195.98 407.858 193.977C418.531 192.413 427.29 188.945 432.61 183.646C443.155 173.126 444.634 161.873 440.412 150.435C438.776 146.012 433.353 142.474 424.625 141.051C415.305 139.532 405.621 139.24 396.214 140.446C384.617 141.931 373.068 143.659 361.874 145.824C348.087 148.487 335.257 152.25 324.759 157.792C316.284 162.265 310.98 167.89 305.517 173.448C302.743 176.268 299.747 179.102 295.999 181.572C287.659 187.063 275.762 187.339 263.873 186.696C250.821 185.991 237.88 184.76 224.852 183.896C207.745 182.761 190.994 183.646 174.789 186.855C163.508 189.087 153.761 192.613 147.705 198.113C138.693 206.299 135.413 215.454 134.045 224.814C125.349 224.814 116.653 224.814 107.966 224.814C107.207 223.796 106.693 222.694 105.634 221.768C102.084 218.663 97.175 218.075 91.918 220.403C89.3567 221.538 87.831 223.324 85.8309 224.814C73.6964 224.81 61.5777 224.81 49.459 224.81ZM326.609 137.266C329.075 137.492 331.597 137.492 334.071 137.266C341.249 136.607 348.482 136.044 355.51 135.084C375.898 132.313 396.277 129.497 416.428 126.292C427.06 124.602 434.412 120.805 435.242 114.492C435.479 112.718 435.535 110.899 435.068 109.146C433.669 103.947 429.195 99.5575 421.74 96.0441C412.025 91.4625 400.38 88.6668 388.34 86.3968C367.273 82.4202 349.747 76.3323 339.573 65.3539C337.976 63.6264 335.7 62.0157 333.257 60.5803C328.609 57.8389 322.814 56.1447 315.589 56.2908C296.094 56.6914 282.608 65.8504 286.173 75.9985C288.379 82.2867 293.731 87.7947 299.936 93.1524C306.735 99.0193 310.743 105.291 310.34 112.288C310.039 117.429 310.205 122.578 310.308 127.719C310.411 133.052 315.494 136.344 324.735 137.095L326.609 137.266ZM515.006 192.989C534.508 193.527 540.603 188.165 539.243 182.014C538.152 177.095 535.283 172.38 530.073 168.169C520.761 160.646 509.148 154.629 492.041 152.317C483.551 151.17 476.436 152.764 472.998 157.062C468.002 163.312 466.389 169.843 468.816 176.606C470.191 180.445 472.27 184.067 478.342 186.575C490.334 191.532 504.856 192.212 515.006 192.989ZM256.22 149.826C242.513 150.135 230.046 152.038 220.259 156.465C210.583 160.842 210.425 166.6 223.105 169.367C228.86 170.623 235.145 171.366 241.327 171.87C259.651 173.368 273.359 168.895 277.145 159.703C278.758 155.793 275.691 152.355 268.473 151.111C264.545 150.431 260.315 150.239 256.22 149.826Z" stroke="white" stroke-opacity="0.3" stroke-width="2" stroke-miterlimit="10"/>
<path d="M-126.797 224.811C-126.402 213.728 -121.777 203.359 -108.662 194.379C-100.488 188.783 -90.164 184.573 -78.5196 181.218C-71.0176 179.053 -63.2546 177.133 -55.8158 174.913C-44.543 171.558 -36.8116 166.409 -31.0883 160.413C-21.1435 149.998 -10.0603 139.796 -4.36067 128.442C-1.01676 121.774 0.564292 114.851 2.80938 108.033C4.39833 103.214 3.33112 98.1815 7.3786 93.5498C11.0782 89.3229 17.5605 87.37 25.8768 86.74C38.6754 85.7677 51.2922 86.3477 63.8299 87.8875C74.9209 89.2478 85.2768 91.3049 92.8342 96.0993C94.8421 97.3762 97.0555 98.653 98.3599 100.13C105.704 108.413 115.143 115.957 125.68 123.209C138.716 132.189 136.068 141.636 126.02 150.707C116.692 159.132 103.103 165.471 86.3598 169.501C66.2647 174.338 45.545 178.439 25.3551 183.175C17.0151 185.132 8.8806 187.548 1.52873 190.39C-7.51485 193.887 -10.4714 199.415 -10.4003 205.003C-10.3291 210.648 -8.40025 216.286 -7.2777 221.927C-7.08798 222.891 -6.88244 223.851 -6.6769 224.815C-16.6849 224.815 -26.7008 224.815 -36.7089 224.815C-37.2385 222.899 -37.6733 220.972 -38.3215 219.069C-40.4322 212.868 -42.0212 206.605 -47.8394 200.93C-52.8988 195.998 -64.646 193.753 -74.2666 196.165C-88.2905 199.683 -95.3578 205.733 -95.9032 213.824C-96.1483 217.479 -95.4606 221.151 -95.1997 224.815C-105.714 224.811 -116.259 224.811 -126.797 224.811ZM4.88054 155.485C5.25209 155.531 5.62363 155.577 5.98727 155.627C4.40622 162.362 13.687 165.099 24.1693 164.219C30.6121 163.676 37.205 162.975 43.1814 161.648C56.8574 158.615 70.5098 155.531 81.4111 149.835C90.7076 144.983 92.0436 139.425 87.6562 133.416C83.8301 128.179 79.1186 123.105 74.3201 118.089C70.1698 113.746 64.4148 110.057 55.6796 107.987C48.0668 106.185 39.6873 106.773 34.3196 110.061C30.62 112.327 27.031 114.931 25.2286 117.718C19.8847 125.993 15.2996 134.409 10.7146 142.813C8.44581 146.99 6.80942 151.258 4.88054 155.485Z" stroke="white" stroke-opacity="0.3" stroke-width="2" stroke-miterlimit="10"/>
<path d="M134.028 224.81C135.404 215.455 138.677 206.3 147.689 198.109C153.744 192.609 163.491 189.083 174.772 186.851C190.978 183.646 207.729 182.757 224.836 183.892C237.864 184.756 250.804 185.987 263.856 186.692C275.745 187.335 287.643 187.059 295.983 181.568C299.73 179.102 302.726 176.269 305.501 173.444C310.963 167.886 316.268 162.257 324.742 157.788C335.24 152.246 348.078 148.483 361.857 145.82C373.051 143.659 384.608 141.927 396.197 140.442C405.605 139.24 415.289 139.528 424.609 141.047C433.336 142.47 438.767 146.004 440.396 150.431C444.617 161.869 443.147 173.122 432.593 183.642C427.273 188.945 418.522 192.409 407.842 193.973C394.197 195.976 380.213 197.337 366.363 198.931C355.201 200.216 343.904 201.238 332.853 202.74C320.608 204.405 312.663 208.866 308.315 214.987C306.062 218.154 304.852 221.522 303.169 224.801C296.315 224.801 289.469 224.801 282.615 224.801C282.346 221.338 282.354 217.862 281.73 214.42C280.892 209.75 278.37 205.306 271.034 202.294C265.69 200.099 260.038 197.954 253.927 196.469C238.053 192.601 221.223 191.128 203.918 192.901C187.452 194.591 173.776 198.972 163.689 206.149C155.886 211.703 151.032 217.954 149.032 224.801C144.044 224.81 139.04 224.81 134.028 224.81ZM364.798 187.08C370.102 186.817 373.897 186.68 377.668 186.429C396.363 185.182 417.589 178.539 418.798 165.716C419.549 157.738 411.96 152.109 396.403 151.821C385.067 151.612 374.94 153.811 365.399 156.711C354.055 160.166 345.296 164.923 340.624 171.562C336.165 177.888 340.442 183.8 351.549 185.737C356.213 186.554 361.272 186.738 364.798 187.08Z" stroke="white" stroke-opacity="0.3" stroke-width="2" stroke-miterlimit="10"/>
<path d="M149.049 224.81C151.041 217.958 155.895 211.712 163.705 206.158C173.792 198.981 187.468 194.599 203.935 192.909C221.239 191.136 238.062 192.609 253.943 196.477C260.054 197.967 265.698 200.112 271.05 202.302C278.394 205.315 280.908 209.755 281.746 214.428C282.363 217.871 282.355 221.346 282.631 224.81C276.837 224.81 271.042 224.81 265.24 224.81C264.963 223.641 264.797 222.465 264.394 221.309C262.679 216.418 260.204 211.712 253.469 207.944C241.619 201.317 226.56 199.081 210.259 200.399C184.78 202.461 169.278 211.958 162.496 224.81C158.005 224.81 153.531 224.81 149.049 224.81Z" stroke="white" stroke-opacity="0.3" stroke-width="2" stroke-miterlimit="10"/>
<path d="M141.215 -71.3648C140.519 -62.1432 134.685 -53.7352 126.187 -45.7778C117.349 -37.5075 104.163 -31.3736 90.5104 -25.4192C79.1743 -20.4745 67.7828 -15.5174 57.3163 -10.0803C47.8933 -5.18159 39.9485 0.501627 30.8891 5.60902C20.4068 11.5176 6.74654 14.8557 -7.60145 9.46877C-12.8505 7.49508 -16.7083 4.80368 -19.1826 1.6825C-29.2618 -11.0526 -26.4712 -24.9769 -6.7635 -35.2793C-1.45118 -38.0541 3.57655 -41.0084 8.3355 -44.0503C17.0233 -49.6042 19.553 -55.9759 16.6992 -63.0153C14.47 -68.5107 11.9245 -73.9936 10.5569 -79.5558C8.39874 -88.3394 12.8889 -96.1507 25.9721 -102.047C32.2488 -104.876 40.241 -105.318 48.0909 -104.567C66.186 -102.831 83.4906 -99.6724 100.052 -95.5039C108.692 -93.3299 117.238 -90.9139 125.08 -88.039C135.799 -84.0957 142.092 -78.6295 141.215 -71.3648ZM51.2214 -75.0952C52.2965 -72.6792 53.2688 -70.2465 54.4704 -67.8514C56.8578 -63.0945 59.6167 -58.3877 61.7432 -53.5975C63.1108 -50.5055 63.3322 -47.2758 64.6049 -44.1672C65.8698 -41.071 70.9054 -39.5188 76.5577 -40.466C92.8662 -43.1991 104.258 -52.0577 103.799 -61.3128C103.262 -72.1827 86.0835 -80.5323 68.2413 -82.5018C58.597 -83.57 51.838 -80.3946 51.2214 -75.0952Z" stroke="white" stroke-opacity="0.3" stroke-width="2" stroke-miterlimit="10"/>
<path d="M193.817 114.162C178.765 114.153 166.204 111.408 155.998 105.624C144.899 99.332 133.152 93.3191 122.796 86.7012C110.069 78.5686 110.994 66.401 123.974 59.3742C133.95 53.9747 145.99 50.1859 159.982 48.2623C167.113 47.2817 174.33 46.9979 181.406 48.0369C189.587 49.2387 195.69 52.122 200.457 55.7356C213.872 65.9003 225.05 76.6867 229.667 88.9419C231.248 93.1313 231.43 97.7004 230.094 101.907C228.22 107.807 220.26 111.445 209.327 112.935C204.291 113.619 198.995 113.77 193.817 114.162ZM173.587 81.3351C175.097 85.4786 179.342 89.426 187.738 91.9254C190.489 92.7433 193.224 92.8434 195.848 91.7836C198.671 90.6486 200.339 89.1881 199.437 87.277C197.295 82.7163 193.026 78.9692 184.56 76.9079C178.662 75.4724 173.469 77.1916 173.587 81.3351Z" stroke="white" stroke-opacity="0.3" stroke-width="2" stroke-miterlimit="10"/>
<path d="M105.008 32.5146C96.7154 32.6106 88.7469 31.7092 82.0749 28.6882C76.6203 26.2221 73.6163 23.0467 73.2052 19.2746C72.3277 11.2088 79.0235 4.60754 88.1382 -1.4554C98.0356 -8.03576 110.692 -13.0597 122.858 -18.3549C134.645 -23.4873 145.704 -29.0245 155.151 -35.3711C165.791 -42.519 175.807 -49.9297 186.637 -56.9899C193.001 -61.1376 200.203 -64.9347 210.361 -66.6789C230.946 -70.2132 255.468 -63.1655 261.389 -52.1329C264.449 -46.4371 262.33 -41.0794 258.646 -35.8301C251.832 -26.1286 244.567 -16.5147 237.539 -6.85071C228.662 5.35028 212.353 13.2242 188.977 17.5763C170.384 21.0397 152.337 25.3208 133.989 29.1514C124.779 31.075 115.356 32.6231 105.008 32.5146ZM228.069 -38.6175C228.069 -39.3143 228.124 -40.007 228.061 -40.7039C227.666 -44.96 221.357 -47.593 213.76 -46.2494C208.867 -45.3856 203.784 -44.1672 199.966 -42.3938C189.112 -37.3615 178.914 -31.9328 168.353 -26.7253C159.428 -22.3273 150.431 -17.9584 141.293 -13.6814C131.775 -9.22915 121.846 -5.01889 112.502 -0.474815C107.427 1.99543 104.091 5.18754 102.723 8.86786C101.103 13.2367 104.518 16.3787 112.415 17.7933C119.111 18.9908 125.696 18.2648 131.68 16.9087C149.317 12.9196 166.835 8.76772 184.108 4.35717C193.989 1.83686 203.072 -1.60562 208.954 -6.60452C213.42 -10.3975 217.08 -14.541 219.942 -18.7513C224.306 -25.1438 227.081 -31.7993 228.069 -38.6175Z" stroke="white" stroke-opacity="0.3" stroke-width="2" stroke-miterlimit="10"/>
<path d="M256.219 149.827C260.314 150.24 264.544 150.432 268.473 151.108C275.69 152.355 278.757 155.789 277.145 159.699C273.358 168.888 259.65 173.361 241.326 171.867C235.144 171.362 228.859 170.619 223.104 169.363C210.424 166.597 210.583 160.838 220.259 156.461C230.045 152.038 242.512 150.14 256.219 149.827Z" stroke="white" stroke-opacity="0.3" stroke-width="2" stroke-miterlimit="10"/>
<path d="M4.88086 155.484C6.80974 151.257 8.44613 146.989 10.7228 142.816C15.3079 134.412 19.8929 125.996 25.2368 117.721C27.0392 114.938 30.6282 112.33 34.3278 110.064C39.6955 106.776 48.075 106.184 55.6878 107.991C64.423 110.06 70.1702 113.749 74.3283 118.093C79.1268 123.112 83.8383 128.182 87.6644 133.419C92.0597 139.423 90.7159 144.986 81.4193 149.839C70.5101 155.53 56.8656 158.618 43.1896 161.651C37.2132 162.978 30.6282 163.679 24.1775 164.222C13.6952 165.102 4.40655 162.369 5.9955 155.63C5.62395 155.576 5.25241 155.53 4.88086 155.484Z" stroke="white" stroke-opacity="0.3" stroke-width="2" stroke-miterlimit="10"/>
<path d="M364.798 187.079C361.272 186.737 356.213 186.554 351.549 185.74C340.442 183.8 336.165 177.891 340.624 171.565C345.304 164.927 354.055 160.17 365.399 156.715C374.932 153.81 385.059 151.616 396.403 151.824C411.96 152.112 419.549 157.741 418.798 165.719C417.589 178.542 396.363 185.185 377.668 186.433C373.897 186.679 370.102 186.812 364.798 187.079Z" stroke="white" stroke-opacity="0.3" stroke-width="2" stroke-miterlimit="10"/>
<path d="M173.586 81.3355C173.467 77.192 178.661 75.4687 184.558 76.9083C193.025 78.9696 197.294 82.7167 199.436 87.2774C200.337 89.1885 198.669 90.649 195.847 91.784C193.223 92.8396 190.487 92.7437 187.736 91.9258C179.341 89.4264 175.096 85.4832 173.586 81.3355Z" stroke="white" stroke-opacity="0.3" stroke-width="2" stroke-miterlimit="10"/>
<path d="M228.069 -38.6167C227.081 -31.7985 224.298 -25.143 219.95 -18.7463C217.088 -14.5402 213.428 -10.3925 208.962 -6.59953C203.08 -1.60063 193.997 1.84185 184.116 4.36216C166.843 8.77271 149.325 12.9245 131.688 16.9137C125.704 18.2656 119.119 18.9958 112.423 17.7983C104.526 16.3837 101.111 13.2417 102.731 8.87286C104.099 5.19253 107.435 1.99625 112.51 -0.469822C121.854 -5.01807 131.783 -9.22416 141.301 -13.6764C150.439 -17.9535 159.436 -22.3181 168.361 -26.7203C178.93 -31.9278 189.12 -37.3565 199.974 -42.3888C203.792 -44.158 208.875 -45.3806 213.768 -46.2444C221.365 -47.588 227.674 -44.955 228.069 -40.6989C228.132 -40.0062 228.069 -39.3094 228.069 -38.6167Z" stroke="white" stroke-opacity="0.3" stroke-width="2" stroke-miterlimit="10"/>
</g>
</g>
</svg>
