<svg width="161" height="161" viewBox="0 0 161 161" fill="none" xmlns="http://www.w3.org/2000/svg">
<path d="M67.7724 38.05C65.3204 36.6724 66.4924 36.4092 66.7652 33.9204C67.038 31.4316 64.9484 31.2428 66.0236 28.7524C67.0988 26.262 65.3996 22.1052 63.242 21.3436C61.0844 20.582 53.2244 19.4404 53.2244 19.4404C53.2244 19.4404 49.6972 21.4564 49.0924 24.95C48.4876 28.4436 49.5724 28.8324 47.2836 29.8812C44.9948 30.93 44.0532 32.3124 44.994 33.922C45.9348 35.5316 44.1876 35.1956 41.9036 36.506C39.6196 37.8164 40.2572 39.502 41.2316 40.426C42.206 41.35 38.9116 41.6156 40.694 44.706C42.4764 47.7964 57.5916 52.5924 63.806 49.27C70.0204 45.9476 70.2228 39.4268 67.7724 38.05Z" fill="#55355C"/>
<path d="M61.4009 41.0978C61.2409 41.2978 59.9609 42.8786 57.7513 42.8938C55.5017 42.9098 54.1873 41.2938 54.0361 41.0978L55.4761 31.6689H59.9657L61.4009 41.0978Z" fill="#ED95BE"/>
<path d="M60.5018 35.2014L60.0322 32.1182H55.4051L54.9395 35.1726C56.7209 35.8969 58.7129 35.9072 60.5018 35.2014Z" fill="#ED95BE"/>
<path d="M57.7178 32.0138C60.6648 32.0138 63.0538 29.6248 63.0538 26.6778C63.0538 23.7308 60.6648 21.3418 57.7178 21.3418C54.7708 21.3418 52.3818 23.7308 52.3818 26.6778C52.3818 29.6248 54.7708 32.0138 57.7178 32.0138Z" fill="#ED95BE"/>
<path d="M52.3887 26.6818C52.3887 26.6818 52.7087 30.9466 54.0463 32.725C54.6527 33.533 55.4663 34.0474 56.1735 34.3682C56.6588 34.5881 57.1855 34.7018 57.7183 34.7018C58.2511 34.7018 58.7777 34.5881 59.2631 34.3682C59.9703 34.0482 60.7831 33.533 61.3903 32.725C62.7255 30.9466 63.0479 26.6818 63.0479 26.6818C56.6527 26.677 59.0991 26.677 52.3887 26.6818Z" fill="#ED95BE"/>
<path d="M56.457 31.93C57.3201 32.0715 58.203 32.0367 59.0522 31.8276C58.933 32.0801 58.7445 32.2936 58.5087 32.4431C58.2729 32.5927 57.9995 32.6722 57.7202 32.6724C56.8986 32.6724 56.4746 31.9596 56.457 31.93Z" fill="#FFF3FF"/>
<path d="M61.4004 41.0978C61.4004 41.0978 70.8404 39.645 76.4404 45.6922C82.0404 51.7394 94.2804 70.5842 94.2804 70.5842L89.4428 40.945L100.025 39.645C100.025 39.645 117.561 82.125 109.096 90.1362C100.63 98.1474 80.3756 84.0898 80.3756 84.0898L61.4004 41.0978Z" fill="#ED95BE"/>
<path d="M82.2941 99.3779C82.2941 99.3779 83.6629 127.023 79.0677 156.199H63.242L59.5732 114.777L69.6349 102.377L82.2941 99.3779Z" fill="#55355C"/>
<path d="M40.4591 54.763C42.4833 72.4733 41.2537 90.4044 36.8311 107.673C41.4711 108.863 47.7279 109.491 55.1231 109.693C64.9991 109.964 76.3375 108.754 82.1823 102.835C83.094 83.8806 79.3589 64.9905 71.3023 47.8094C61.4623 41.1373 61.3727 41.0981 61.4047 41.0981H54.0359L40.4591 54.763Z" fill="#ED95BE"/>
<path d="M36.0332 110.313L39.4076 95.466C39.4076 95.466 60.4132 99.7748 68.1988 99.378C75.9844 98.9812 82.266 93.9028 82.266 93.9028C82.266 93.9028 82.5668 103.737 82.4852 110.313C82.4036 116.889 72.4316 119.766 72.4316 119.766L36.0332 110.313Z" fill="#55355C"/>
<path d="M61.4004 41.0981C61.4004 41.0981 71.222 38.4365 76.7396 43.6516C82.2572 48.8668 79.3492 51.4532 85.5076 53.0244C91.666 54.5956 94.2756 70.5844 94.2756 70.5844C94.2756 70.5844 90.0164 81.5516 91.0124 89.8884C91.0124 89.8884 86.7924 91.8748 81.0484 85.9796L75.0012 66.1252L61.4004 41.0981Z" fill="#FFF3FF"/>
<path d="M82.3159 73.5838L82.0631 89.5798C82.0631 89.5798 54.5182 97.6198 39.9326 88.5494L40.5366 66.1254L54.0358 41.0981H61.4006L80.5951 62.7526L82.3159 73.5838Z" fill="#FFF3FF"/>
<path d="M54.036 41.0981C54.036 41.0981 40.1567 41.3085 36.0751 49.0181C26.6879 66.7525 20.7511 90.2325 30.3327 95.5789C37.9663 99.8397 53.8624 90.9045 67.9728 73.6509L61.4032 66.1253L40.0056 77.7405L47.2856 62.3213C47.2856 62.3213 57.2504 52.4957 54.036 41.0981Z" fill="#ED95BE"/>
<path d="M54.0358 41.0983C54.0358 41.0983 40.5158 40.0239 34.4038 47.4311C28.2918 54.8383 31.8438 57.0311 27.1558 61.9439C22.4678 66.8567 21.1094 73.4327 22.0126 78.1191C22.9158 82.8055 24.9294 84.4679 24.9294 84.4679L40.0022 77.7407L51.0406 60.2055C53.3686 57.671 54.8951 54.5047 55.428 51.1049C55.961 47.705 55.4766 44.2235 54.0358 41.0983Z" fill="#FFF3FF"/>
<path d="M48.4125 41.2418C48.4125 41.2418 50.1885 46.1962 46.8125 53.7546C46.8125 53.7546 53.8525 53.8554 59.5773 56.173C59.5773 56.173 65.1037 51.8906 70.1933 52.2426C70.1933 52.2426 65.4557 46.6426 66.8669 40.421C60.7038 40.2592 54.5369 40.5335 48.4125 41.2418Z" fill="#ED95BE"/>
<path d="M53.5258 27.0666C53.5258 27.0666 54.537 26.561 54.9386 24.4442C55.3402 22.3274 57.7546 21.9586 57.7546 21.9586C57.7546 21.9586 58.2754 24.1922 60.501 24.5122C62.7266 24.8322 62.3322 27.6218 62.3322 27.6218L64.1586 29.8794C64.1586 29.8794 65.1674 24.4546 63.245 21.3418C61.3226 18.2291 57.7578 20.1419 57.7578 20.1419C57.173 19.8011 55.0378 18.6435 53.2274 19.4363C50.8682 20.4707 49.521 24.6218 51.4802 29.1114L53.5258 27.0666Z" fill="#570B7F"/>
<path d="M53.7003 30.8889C54.6087 30.3645 54.7922 28.9818 54.1102 27.8006C53.4283 26.6194 52.1391 26.087 51.2307 26.6114C50.3223 27.1359 50.1388 28.5186 50.8207 29.6998C51.5027 30.881 52.7919 31.4134 53.7003 30.8889Z" fill="#ED95BE"/>
<path d="M64.8866 29.7024C65.5686 28.5212 65.385 27.1385 64.4767 26.614C63.5683 26.0896 62.2791 26.622 61.5971 27.8032C60.9151 28.9844 61.0987 30.367 62.0071 30.8915C62.9154 31.4159 64.2047 30.8836 64.8866 29.7024Z" fill="#ED95BE"/>
<path d="M51.8926 28.977C51.9462 28.729 52.1566 28.5538 52.5462 28.5898C52.2998 28.1762 51.9526 27.7634 51.7206 27.7826C51.6891 27.784 51.6584 27.7925 51.6307 27.8075C51.603 27.8224 51.579 27.8435 51.5606 27.869C51.4374 28.037 51.4806 28.4066 51.5022 28.5226C51.5077 28.5436 51.5089 28.5655 51.5056 28.5869C51.5024 28.6083 51.4949 28.6289 51.4835 28.6473C51.4721 28.6658 51.4571 28.6817 51.4393 28.6942C51.4216 28.7066 51.4015 28.7153 51.3802 28.7198C51.359 28.7242 51.3371 28.7243 51.3159 28.7201C51.2946 28.7158 51.2745 28.7072 51.2566 28.6949C51.2387 28.6826 51.2236 28.6668 51.212 28.6485C51.2005 28.6301 51.1928 28.6096 51.1894 28.5882C51.087 28.1002 51.1798 27.517 51.6854 27.4682C52.3046 27.3986 52.8854 28.5258 52.9934 28.7482C53.0072 28.7768 53.0121 28.8089 53.0076 28.8404C53.0031 28.8719 52.9894 28.9013 52.9681 28.9249C52.9468 28.9485 52.919 28.9652 52.8881 28.9729C52.8573 28.9806 52.8249 28.979 52.795 28.9682C52.6606 28.9202 52.4022 28.869 52.2758 28.9394C52.0438 29.0666 52.3798 29.601 52.7086 29.7042C52.8038 29.7354 52.9126 29.7394 52.9942 29.5442C53.0019 29.5243 53.0135 29.506 53.0283 29.4907C53.0432 29.4753 53.0609 29.463 53.0806 29.4546C53.1003 29.4462 53.1214 29.4418 53.1428 29.4417C53.1642 29.4416 53.1854 29.4458 53.2051 29.4541C53.2248 29.4623 53.2427 29.4744 53.2577 29.4897C53.2727 29.5049 53.2844 29.5231 53.2923 29.5429C53.3002 29.5628 53.3039 29.5841 53.3034 29.6055C53.3029 29.6269 53.2982 29.6479 53.2894 29.6674C52.9134 30.5762 51.7542 29.6138 51.8926 28.977ZM62.1814 29.6674C62.1651 29.6282 62.165 29.584 62.1812 29.5447C62.1974 29.5054 62.2285 29.4742 62.2678 29.4578C62.307 29.4415 62.3512 29.4414 62.3905 29.4576C62.4298 29.4738 62.4611 29.505 62.4774 29.5442C62.5574 29.7394 62.667 29.7354 62.763 29.7042C63.0758 29.6058 63.4342 29.0722 63.195 28.9386C63.063 28.8666 62.7886 28.9274 62.6758 28.9682C62.6459 28.979 62.6135 28.9806 62.5826 28.9729C62.5518 28.9652 62.524 28.9485 62.5027 28.9249C62.4814 28.9013 62.4676 28.8719 62.4631 28.8404C62.4586 28.8089 62.4636 28.7768 62.4774 28.7482C62.587 28.5226 63.1702 27.3954 63.7862 27.4682C64.2902 27.5202 64.3838 28.101 64.2814 28.5882C64.278 28.6096 64.2703 28.6301 64.2587 28.6485C64.2472 28.6668 64.232 28.6826 64.2142 28.6949C64.1963 28.7072 64.1762 28.7158 64.1549 28.7201C64.1336 28.7243 64.1117 28.7242 64.0905 28.7198C64.0693 28.7153 64.0492 28.7066 64.0315 28.6942C64.0137 28.6817 63.9987 28.6658 63.9873 28.6473C63.9759 28.6289 63.9683 28.6083 63.9651 28.5869C63.9619 28.5655 63.9631 28.5436 63.9686 28.5226C63.9926 28.4066 64.0342 28.037 63.911 27.869C63.6614 27.5298 63.1446 28.225 62.927 28.589C63.319 28.553 63.5278 28.7298 63.5806 28.9762C63.7206 29.6186 62.559 30.573 62.1814 29.6674Z" fill="#570B7F"/>
<path d="M37.3975 104.311C37.3975 104.311 31.2879 120.623 31.8927 129.693C32.4975 138.764 33.1023 156.199 33.1023 156.199H67.9719L66.9647 112.359L37.3975 104.311Z" fill="#55355C"/>
<path d="M70.1895 156.199L72.8095 127.789L76.639 156.199H70.1895Z" fill="#ED95BE"/>
<path d="M69.2371 105.385C53.7235 105.385 40.0179 100.567 39.8771 100.517C39.8564 100.51 39.8371 100.5 39.8206 100.486C39.804 100.472 39.7904 100.455 39.7807 100.435C39.7709 100.416 39.7652 100.395 39.7639 100.373C39.7626 100.351 39.7657 100.33 39.773 100.309C39.7804 100.289 39.7918 100.27 39.8065 100.254C39.8213 100.238 39.8392 100.226 39.859 100.217C39.8789 100.208 39.9003 100.204 39.9219 100.203C39.9436 100.203 39.9651 100.207 39.9851 100.216C40.1315 100.268 54.8315 105.439 71.0059 105.044C71.4235 104.92 78.2475 102.844 82.1875 99.2597C82.2194 99.2311 82.2613 99.2162 82.304 99.2185C82.3252 99.2196 82.3459 99.2249 82.3651 99.234C82.3842 99.2431 82.4014 99.2559 82.4155 99.2717C82.4297 99.2875 82.4407 99.3059 82.4477 99.3258C82.4548 99.3458 82.4579 99.367 82.4568 99.3882C82.4556 99.4094 82.4504 99.4301 82.4412 99.4492C82.4321 99.4684 82.4193 99.4855 82.4035 99.4997C78.3027 103.229 71.1475 105.34 71.0755 105.361C71.0035 105.381 69.3187 105.385 69.2371 105.385ZM38.6948 154.444C38.6523 154.444 38.6116 154.427 38.5816 154.397C38.5516 154.367 38.5348 154.326 38.5348 154.284C38.5348 115.283 38.5003 117.942 38.6043 117.871C44.7179 113.696 44.8171 106.446 44.8171 106.373C44.8171 106.331 44.834 106.29 44.864 106.26C44.894 106.23 44.9347 106.213 44.9771 106.213C45.0196 106.213 45.0603 106.23 45.0903 106.26C45.1203 106.29 45.1371 106.331 45.1371 106.373C45.1371 106.447 45.0411 113.806 38.8548 118.085V154.282C38.855 154.303 38.851 154.324 38.843 154.344C38.8351 154.363 38.8233 154.381 38.8085 154.396C38.7936 154.411 38.7759 154.423 38.7564 154.431C38.7368 154.439 38.7159 154.444 38.6948 154.444Z" fill="#570B7F"/>
<path d="M135.825 42.335L93.031 48.275L92.2998 19.0438L131.83 13.5566L135.825 42.335Z" fill="#FFF27B"/>
<path d="M99.6105 47.3619L139.019 41.8915L131.761 13.5659L92.2305 19.0531L99.6105 47.3619Z" fill="#F7E00B"/>
<path d="M97.3458 20.1195C97.3366 20.0351 97.3613 19.9506 97.4144 19.8844C97.4675 19.8183 97.5447 19.7759 97.629 19.7667C97.7242 19.7563 98.569 19.6427 98.9698 18.9027C99.245 18.3955 99.2802 17.6171 98.817 17.1115C97.8738 16.0947 96.5834 16.9803 96.473 18.3915C96.4663 18.4763 96.4262 18.5551 96.3615 18.6103C96.2967 18.6656 96.2127 18.6929 96.1278 18.6863C96.0429 18.6796 95.9642 18.6394 95.9089 18.5747C95.8536 18.51 95.8263 18.4259 95.833 18.3411C95.9314 17.0971 96.7698 16.1067 97.7842 16.0363C98.5978 15.9819 99.1786 16.5619 99.2866 16.6763C99.8842 17.3283 99.985 18.3683 99.5266 19.2059C98.9826 20.2099 97.9042 20.3771 97.6938 20.4003C97.6106 20.4081 97.5277 20.3832 97.4626 20.3307C97.3976 20.2783 97.3557 20.2024 97.3458 20.1195ZM104.247 19.1603C104.238 19.0759 104.263 18.9915 104.317 18.9255C104.37 18.8595 104.447 18.8173 104.531 18.8083C104.626 18.7979 105.469 18.6875 105.871 17.9451C106.147 17.4379 106.183 16.6595 105.719 16.1539C104.774 15.1307 103.484 16.0299 103.374 17.4339C103.367 17.5187 103.327 17.5975 103.263 17.6529C103.198 17.7082 103.114 17.7356 103.029 17.7291C102.944 17.7225 102.865 17.6825 102.81 17.6178C102.755 17.5531 102.727 17.4691 102.734 17.3843C102.831 16.1403 103.671 15.1499 104.685 15.0795C105.515 15.0243 106.082 15.6059 106.188 15.7195C106.785 16.3699 106.886 17.4099 106.428 18.2475C105.868 19.2771 104.723 19.4283 104.594 19.4419C104.511 19.4493 104.428 19.424 104.363 19.3714C104.299 19.3188 104.257 19.2431 104.247 19.1603ZM111.149 18.2035C111.14 18.1192 111.164 18.0348 111.217 17.9687C111.27 17.9026 111.347 17.8601 111.431 17.8507C111.527 17.8403 112.371 17.7267 112.773 16.9867C113.047 16.4795 113.083 15.7011 112.619 15.1955C111.695 14.1859 110.388 15.0475 110.275 16.4755C110.269 16.5603 110.229 16.6391 110.164 16.6944C110.099 16.7496 110.015 16.7769 109.93 16.7703C109.845 16.7636 109.767 16.7235 109.711 16.6587C109.656 16.594 109.629 16.5099 109.635 16.4251C109.733 15.1811 110.572 14.1907 111.587 14.1211C112.401 14.0651 112.982 14.6467 113.089 14.7611C113.687 15.4123 113.787 16.4523 113.329 17.2899C112.785 18.2939 111.707 18.4611 111.496 18.4843C111.413 18.4919 111.33 18.4669 111.266 18.4144C111.201 18.362 111.159 18.2863 111.149 18.2035ZM118.051 17.2451C118.041 17.1607 118.066 17.0762 118.119 17.01C118.172 16.9439 118.25 16.9015 118.334 16.8923C118.429 16.8819 119.271 16.7715 119.674 16.0291C119.949 15.5219 119.985 14.7435 119.521 14.2379C118.578 13.2211 117.288 14.1067 117.177 15.5179C117.174 15.5599 117.162 15.6009 117.143 15.6384C117.124 15.676 117.098 15.7095 117.066 15.7369C117.034 15.7643 116.997 15.7851 116.957 15.7982C116.917 15.8113 116.874 15.8163 116.832 15.8131C116.79 15.8098 116.749 15.7983 116.712 15.7792C116.674 15.7601 116.641 15.7338 116.613 15.7018C116.586 15.6698 116.565 15.6327 116.552 15.5926C116.539 15.5525 116.534 15.5103 116.537 15.4683C116.635 14.2243 117.473 13.2331 118.488 13.1635C119.301 13.1059 119.883 13.6883 119.991 13.8035C120.588 14.4555 120.688 15.4955 120.231 16.3331C119.671 17.3627 118.525 17.5139 118.396 17.5275C118.313 17.5347 118.231 17.5092 118.166 17.4564C118.102 17.4037 118.06 17.3279 118.051 17.2451ZM124.952 16.2867C124.943 16.2023 124.968 16.1178 125.021 16.0516C125.074 15.9855 125.151 15.9431 125.235 15.9339C125.331 15.9235 126.173 15.8131 126.575 15.0707C126.851 14.5635 126.887 13.7851 126.423 13.2795C125.482 12.2595 124.189 13.1523 124.079 14.5595C124.072 14.6443 124.032 14.7231 123.967 14.7784C123.902 14.8336 123.818 14.8609 123.733 14.8543C123.649 14.8476 123.57 14.8075 123.515 14.7427C123.459 14.678 123.432 14.5939 123.439 14.5091C123.536 13.2651 124.375 12.2747 125.39 12.2051C126.203 12.1523 126.784 12.7299 126.891 12.8451C127.49 13.4971 127.59 14.5371 127.136 15.3747C126.576 16.4035 125.431 16.5547 125.302 16.5691C125.218 16.5774 125.135 16.5524 125.069 16.4996C125.004 16.4467 124.962 16.3702 124.952 16.2867Z" fill="#570B7F"/>
<path d="M97.764 21.1858C98.2788 21.1858 98.696 20.7685 98.696 20.2538C98.696 19.739 98.2788 19.3218 97.764 19.3218C97.2493 19.3218 96.832 19.739 96.832 20.2538C96.832 20.7685 97.2493 21.1858 97.764 21.1858Z" fill="#570B7F"/>
<path d="M104.502 20.2507C105.017 20.2507 105.434 19.8334 105.434 19.3187C105.434 18.804 105.017 18.3867 104.502 18.3867C103.988 18.3867 103.57 18.804 103.57 19.3187C103.57 19.8334 103.988 20.2507 104.502 20.2507Z" fill="#570B7F"/>
<path d="M111.241 19.3157C111.755 19.3157 112.173 18.8984 112.173 18.3837C112.173 17.8689 111.755 17.4517 111.241 17.4517C110.726 17.4517 110.309 17.8689 110.309 18.3837C110.309 18.8984 110.726 19.3157 111.241 19.3157Z" fill="#570B7F"/>
<path d="M117.978 18.3801C118.493 18.3801 118.91 17.9628 118.91 17.4481C118.91 16.9334 118.493 16.5161 117.978 16.5161C117.463 16.5161 117.046 16.9334 117.046 17.4481C117.046 17.9628 117.463 18.3801 117.978 18.3801Z" fill="#570B7F"/>
<path d="M124.716 17.4451C125.231 17.4451 125.648 17.0278 125.648 16.5131C125.648 15.9983 125.231 15.5811 124.716 15.5811C124.201 15.5811 123.784 15.9983 123.784 16.5131C123.784 17.0278 124.201 17.4451 124.716 17.4451Z" fill="#570B7F"/>
<path d="M98.2804 28.885L96.7796 24.0201C96.7727 23.998 96.7708 23.9747 96.7739 23.9518C96.7769 23.9288 96.785 23.9068 96.7973 23.8873C96.8097 23.8677 96.8262 23.8511 96.8457 23.8385C96.8651 23.826 96.8871 23.8178 96.91 23.8145L102.03 23.1033C102.068 23.098 102.106 23.1063 102.138 23.1267C102.17 23.1471 102.194 23.1782 102.205 23.2145C103.844 28.4826 103.76 28.1186 103.7 28.2106C103.641 28.3026 104.034 28.2218 98.4556 28.9962C98.4179 29.0015 98.3796 28.9932 98.3475 28.9728C98.3154 28.9524 98.2916 28.9213 98.2804 28.885ZM97.1404 24.1049L98.546 28.661L103.356 27.993L101.939 23.4393L97.1404 24.1049ZM105.197 27.9258L103.677 23.0633C103.67 23.0411 103.668 23.0176 103.671 22.9946C103.674 22.9715 103.682 22.9493 103.695 22.9297C103.707 22.91 103.724 22.8933 103.744 22.8808C103.763 22.8682 103.785 22.8601 103.808 22.8569L108.928 22.1465C108.966 22.1414 109.004 22.1495 109.036 22.1695C109.067 22.1896 109.091 22.2203 109.103 22.2561C110.772 27.5602 110.672 27.1602 110.616 27.2506C110.559 27.341 110.936 27.2634 105.371 28.0362C105.333 28.0411 105.296 28.0327 105.264 28.0126C105.232 27.9924 105.209 27.9616 105.197 27.9258ZM104.041 23.1521L105.462 27.705L110.272 27.037L108.839 22.4857L104.041 23.1521ZM112.113 26.9658L110.579 22.1057C110.572 22.0835 110.57 22.06 110.573 22.037C110.576 22.0139 110.584 21.9917 110.596 21.9721C110.609 21.9524 110.626 21.9357 110.645 21.9232C110.665 21.9106 110.687 21.9025 110.71 21.8993L115.83 21.1881C115.867 21.183 115.905 21.1913 115.937 21.2115C115.969 21.2317 115.993 21.2625 116.004 21.2985C117.693 26.601 117.592 26.2002 117.535 26.2906C117.478 26.381 117.868 26.3018 112.289 27.0762C112.252 27.0817 112.213 27.0736 112.181 27.0534C112.149 27.0332 112.125 27.0021 112.113 26.9658ZM110.941 22.1921L112.381 26.7426L117.191 26.0754L115.742 21.5257L110.941 22.1921ZM119.03 26.0066L117.479 21.1521C117.472 21.1299 117.47 21.1064 117.472 21.0833C117.475 21.0602 117.483 21.0379 117.496 21.0182C117.508 20.9985 117.525 20.9817 117.544 20.969C117.564 20.9564 117.586 20.9482 117.609 20.9449L122.729 20.2345C122.767 20.2293 122.804 20.2375 122.836 20.2575C122.868 20.2776 122.892 20.3083 122.904 20.3441C124.61 25.6442 124.504 25.2433 124.451 25.3345C124.398 25.4257 124.771 25.3474 119.205 26.1202C119.167 26.1253 119.129 26.1167 119.097 26.0959C119.064 26.075 119.041 26.0433 119.03 26.0066ZM117.841 21.2321L119.292 25.7809L124.102 25.113L122.637 20.5657L117.841 21.2321ZM125.947 25.0465L124.379 20.1905C124.372 20.1683 124.37 20.1448 124.372 20.1217C124.375 20.0986 124.383 20.0763 124.396 20.0566C124.408 20.0369 124.425 20.0201 124.444 20.0074C124.464 19.9948 124.486 19.9865 124.509 19.9833L129.629 19.2729C129.666 19.2679 129.704 19.276 129.736 19.2959C129.767 19.3158 129.791 19.3462 129.803 19.3817C131.527 24.6761 131.424 24.2785 131.367 24.3705C131.31 24.4625 131.7 24.3817 126.121 25.1561C126.084 25.1613 126.046 25.1532 126.014 25.1331C125.982 25.1131 125.958 25.0824 125.947 25.0465ZM124.742 20.2721L126.21 24.8193L131.019 24.1513L129.54 19.6065L124.742 20.2721ZM100.252 35.8722L98.7516 31.0066C98.7448 30.9844 98.7428 30.9611 98.7459 30.9382C98.7489 30.9152 98.757 30.8932 98.7694 30.8737C98.7818 30.8541 98.7982 30.8375 98.8177 30.825C98.8371 30.8124 98.8591 30.8042 98.882 30.801L104.002 30.0906C104.04 30.0853 104.078 30.0935 104.11 30.1139C104.142 30.1343 104.166 30.1654 104.177 30.2018C105.816 35.469 105.732 35.105 105.672 35.1978C105.613 35.2906 106.006 35.2082 100.428 35.9834C100.39 35.9887 100.352 35.9804 100.32 35.96C100.287 35.9396 100.264 35.9085 100.252 35.8722ZM99.1124 31.0922L100.518 35.6474L105.328 34.9794L103.911 30.4266L99.1124 31.0922ZM107.172 34.9122L105.652 30.0498C105.645 30.0275 105.643 30.0041 105.646 29.981C105.649 29.9579 105.657 29.9357 105.669 29.9161C105.682 29.8964 105.698 29.8797 105.718 29.8672C105.738 29.8546 105.76 29.8465 105.783 29.8434L110.903 29.133C110.94 29.1278 110.978 29.1361 111.01 29.1563C111.042 29.1765 111.066 29.2073 111.077 29.2434C112.747 34.5474 112.647 34.1474 112.59 34.2378C112.533 34.3282 112.91 34.2498 107.345 35.0234C107.308 35.0283 107.27 35.0198 107.238 34.9995C107.206 34.9791 107.183 34.9482 107.172 34.9122ZM106.012 30.1306L107.433 34.6834L112.243 34.0154L110.812 29.465L106.012 30.1306ZM114.088 33.9522L112.553 29.0922C112.546 29.0699 112.544 29.0465 112.547 29.0234C112.55 29.0003 112.558 28.9781 112.571 28.9585C112.583 28.9388 112.6 28.9221 112.62 28.9096C112.639 28.897 112.661 28.8889 112.684 28.8858L117.804 28.1754C117.842 28.1702 117.88 28.1783 117.912 28.1984C117.943 28.2184 117.967 28.2491 117.979 28.285C119.668 33.5874 119.566 33.1874 119.508 33.2778C119.451 33.3682 119.842 33.2882 114.264 34.0626C114.226 34.0681 114.187 34.0601 114.155 34.0398C114.123 34.0196 114.099 33.9885 114.088 33.9522ZM112.916 29.177L114.356 33.7274L119.165 33.0594L117.716 28.5106L112.916 29.177ZM121.004 32.9922L119.452 28.1314C119.445 28.1091 119.443 28.0856 119.446 28.0625C119.449 28.0394 119.457 28.0172 119.469 27.9974C119.482 27.9777 119.498 27.9609 119.518 27.9482C119.538 27.9356 119.56 27.9274 119.583 27.9242L124.703 27.2138C124.74 27.2085 124.778 27.2165 124.81 27.2364C124.842 27.2563 124.866 27.2868 124.877 27.3226C126.584 32.6234 126.477 32.2226 126.424 32.313C126.372 32.4034 126.744 32.3258 121.179 33.0986C121.142 33.1039 121.104 33.0962 121.072 33.0768C121.041 33.0574 121.017 33.0274 121.004 32.9922ZM119.816 28.2186L121.268 32.7666L126.078 32.0994L124.613 27.5522L119.816 28.2186ZM127.921 32.0322L126.353 27.1762C126.346 27.1539 126.344 27.1304 126.347 27.1073C126.35 27.0842 126.358 27.062 126.37 27.0422C126.383 27.0225 126.399 27.0057 126.419 26.993C126.438 26.9804 126.461 26.9722 126.484 26.969L131.604 26.2578C131.641 26.2528 131.679 26.261 131.71 26.281C131.742 26.3011 131.766 26.3316 131.777 26.3674C133.501 31.6618 133.398 31.2634 133.341 31.3554C133.284 31.4474 133.674 31.3666 128.096 32.141C128.058 32.1462 128.021 32.1382 127.989 32.1183C127.957 32.0984 127.933 32.0679 127.921 32.0322ZM126.716 27.2594L128.184 31.8058L132.993 31.1386L131.514 26.5922L126.716 27.2594ZM102.252 42.4562L100.751 37.5922C100.744 37.57 100.742 37.5466 100.745 37.5236C100.748 37.5006 100.756 37.4786 100.769 37.459C100.781 37.4395 100.798 37.4229 100.817 37.4103C100.837 37.3978 100.859 37.3897 100.882 37.3866L106.002 36.6754C106.04 36.6703 106.078 36.6786 106.11 36.699C106.142 36.7194 106.165 36.7504 106.176 36.7866C107.816 42.0538 107.732 41.6898 107.672 41.7826C107.613 41.8754 108.006 41.7938 102.428 42.5682C102.39 42.5734 102.351 42.5651 102.319 42.5445C102.287 42.524 102.263 42.4927 102.252 42.4562ZM101.112 37.677L102.518 42.2322L107.328 41.565L105.911 37.0114L101.112 37.677ZM109.169 41.497L107.649 36.6346C107.642 36.6123 107.64 36.5889 107.643 36.5658C107.646 36.5427 107.654 36.5205 107.667 36.5009C107.679 36.4812 107.696 36.4645 107.716 36.452C107.735 36.4394 107.757 36.4313 107.78 36.4282L112.9 35.7178C112.938 35.7126 112.976 35.7209 113.008 35.7411C113.04 35.7613 113.063 35.7921 113.075 35.8282C114.744 41.1322 114.644 40.7322 114.588 40.8226C114.531 40.913 114.908 40.8354 109.343 41.6082C109.305 41.6131 109.267 41.6046 109.236 41.5843C109.204 41.5639 109.18 41.533 109.169 41.497ZM108.012 36.7194L109.433 41.2722L114.244 40.605L112.812 36.0538L108.012 36.7194ZM116.086 40.5378L114.552 35.677C114.545 35.6548 114.543 35.6314 114.546 35.6083C114.549 35.5853 114.557 35.5632 114.569 35.5436C114.581 35.5239 114.598 35.5072 114.617 35.4946C114.637 35.482 114.659 35.4738 114.682 35.4706L119.802 34.7602C119.839 34.755 119.877 34.7631 119.909 34.7832C119.941 34.8032 119.965 34.8339 119.976 34.8698C121.664 40.1722 121.564 39.7722 121.506 39.8626C121.448 39.953 121.84 39.873 116.261 40.6482C116.224 40.6535 116.185 40.6454 116.153 40.6251C116.121 40.6049 116.097 40.574 116.086 40.5378ZM114.914 35.7618L116.354 40.3122L121.164 39.6442L119.716 35.0954L114.914 35.7618ZM123.003 39.5778L121.452 34.7202C121.445 34.698 121.443 34.6745 121.446 34.6513C121.449 34.6282 121.457 34.606 121.469 34.5862C121.482 34.5665 121.498 34.5497 121.518 34.537C121.538 34.5244 121.56 34.5162 121.583 34.513L126.703 33.8026C126.74 33.7975 126.778 33.8057 126.809 33.8255C126.841 33.8454 126.865 33.8758 126.876 33.9114C128.584 39.2122 128.476 38.8114 128.424 38.9018C128.371 38.9922 128.744 38.9146 123.179 39.6882C123.141 39.6937 123.103 39.6857 123.07 39.6654C123.038 39.6452 123.014 39.6141 123.003 39.5778ZM121.814 34.8034L123.267 39.3522L128.076 38.685L126.612 34.1378L121.814 34.8034ZM129.919 38.6178L128.352 33.7626C128.345 33.7404 128.342 33.717 128.345 33.6939C128.348 33.6708 128.356 33.6486 128.368 33.6289C128.381 33.6092 128.397 33.5924 128.417 33.5797C128.436 33.567 128.458 33.5587 128.481 33.5554L133.601 32.845C133.638 32.8397 133.676 32.8478 133.708 32.8677C133.74 32.8875 133.764 32.918 133.776 32.9538C135.5 38.2482 135.396 37.8498 135.34 37.9418C135.283 38.0338 135.672 37.953 130.094 38.7274C130.057 38.7328 130.018 38.7247 129.986 38.7047C129.954 38.6846 129.93 38.6538 129.919 38.6178ZM128.714 33.8458L130.182 38.3922L134.992 37.725L133.512 33.1802L128.714 33.8458Z" fill="#570B7F"/>
<path d="M90.0849 44.9069C90.0849 44.9069 88.9337 38.6749 89.1017 35.8765C89.2697 33.0781 92.0217 28.6589 93.4017 28.7509C94.7817 28.8429 94.5441 31.9741 93.4017 34.8605C93.4017 34.8605 93.8721 39.4797 92.5961 42.4101L90.0849 44.9069Z" fill="#ED95BE"/>
<path d="M40.8618 77.2455C40.8387 77.2457 40.8159 77.241 40.7949 77.2316C40.7739 77.2222 40.7551 77.2083 40.7399 77.191C40.7247 77.1737 40.7134 77.1533 40.7069 77.1312C40.7003 77.1091 40.6985 77.0859 40.7018 77.0631C40.7106 76.9999 41.633 70.7343 43.5298 64.9535C45.4042 59.2487 42.0642 52.7351 42.0298 52.6727C42.0101 52.635 42.0063 52.5911 42.019 52.5506C42.0318 52.5101 42.0601 52.4763 42.0978 52.4567C42.1354 52.437 42.1793 52.4332 42.2199 52.4459C42.2604 52.4587 42.2941 52.487 42.3138 52.5247C42.3482 52.5911 45.7538 59.2247 43.8338 65.0559C41.945 70.8095 41.0274 77.0487 41.0186 77.1111C41.0125 77.1484 40.9935 77.1824 40.9648 77.207C40.9361 77.2316 40.8996 77.2452 40.8618 77.2455ZM82.1025 87.1527C82.0626 87.1529 82.0241 87.1381 81.9945 87.1113C81.9648 87.0845 81.9463 87.0476 81.9425 87.0079C81.9185 86.7463 79.4857 60.7831 73.5745 49.9527C73.5542 49.9154 73.5494 49.8716 73.5614 49.8309C73.5733 49.7901 73.6009 49.7558 73.6381 49.7355C73.6754 49.7151 73.7192 49.7103 73.7599 49.7223C73.8007 49.7342 73.835 49.7618 73.8553 49.7991C79.7985 60.6879 82.2369 86.7167 82.2609 86.9783C82.2629 87.0004 82.2603 87.0226 82.2533 87.0436C82.2462 87.0646 82.2349 87.0839 82.22 87.1003C82.2051 87.1167 82.187 87.1298 82.1668 87.1388C82.1466 87.1478 82.1247 87.1526 82.1025 87.1527Z" fill="#570B7F"/>
<path d="M23.9131 83.2069L25.7291 87.7557C25.7291 87.7557 38.7811 82.5557 42.1651 76.5685C42.1651 76.5685 28.9339 82.6773 23.9131 83.2069ZM94.2755 70.5845C94.2755 70.5845 88.6323 85.0429 88.4811 90.2101C88.4811 90.2101 89.9707 90.6421 92.2995 90.4141C92.2995 90.4141 93.4187 75.6229 94.2755 70.5845Z" fill="#F7E00B"/>
<path d="M56.431 63.5085C56.4654 63.4797 59.871 60.5837 59.4142 56.1901C59.4098 56.1507 59.4202 56.111 59.4433 56.0788C59.4664 56.0466 59.5007 56.0242 59.5395 56.0158C59.5782 56.0074 59.6187 56.0138 59.653 56.0335C59.6874 56.0533 59.7132 56.0851 59.7254 56.1229C59.7382 56.1629 61.0798 60.0709 64.743 61.1717C64.7828 61.1846 64.8159 61.2126 64.8352 61.2496C64.8546 61.2866 64.8587 61.3298 64.8467 61.3698C64.8347 61.4098 64.8075 61.4436 64.7709 61.4638C64.7344 61.484 64.6913 61.4891 64.651 61.4781C61.891 60.6485 60.3982 58.3021 59.7758 57.0437C59.7526 61.1085 56.6694 63.7269 56.6358 63.7541C56.6031 63.7794 56.5618 63.791 56.5206 63.7866C56.4794 63.7821 56.4416 63.7618 56.415 63.73C56.3885 63.6982 56.3754 63.6573 56.3783 63.616C56.3813 63.5747 56.4002 63.5361 56.431 63.5085Z" fill="#570B7F"/>
<path d="M61.123 67.5236C61.123 67.5236 61.1742 63.6924 62.3966 61.138C63.619 58.5836 62.6086 56.9348 63.8862 56.3492C65.1638 55.7636 66.1743 56.9892 65.6951 60.7124C65.6951 60.7124 70.9103 55.338 72.3999 55.1252C73.8895 54.9124 72.2951 58.1588 69.6871 61.3244C69.6871 61.3244 72.7727 60.5532 71.4423 63.6924C71.4423 63.6924 74.0823 63.3724 72.9735 66.1404C72.9735 66.1404 75.3479 65.9132 74.3527 68.5276C73.3575 71.142 69.5263 75.7188 66.4399 74.7604C63.3535 73.802 61.123 67.5236 61.123 67.5236Z" fill="#ED95BE"/>
<path d="M67.2162 63.7924C67.1837 63.7925 67.1519 63.7827 67.1251 63.7642C67.0982 63.7458 67.0777 63.7196 67.0661 63.6892C67.0545 63.6588 67.0525 63.6255 67.0603 63.5939C67.0682 63.5623 67.0854 63.5339 67.1098 63.5124C68.0042 62.7172 69.5602 61.2252 69.5754 61.21C69.606 61.1805 69.647 61.1643 69.6895 61.1651C69.7319 61.1658 69.7723 61.1834 69.8018 61.214C69.8313 61.2445 69.8475 61.2855 69.8467 61.328C69.846 61.3704 69.8284 61.4109 69.7978 61.4404C69.7818 61.4564 68.221 62.9532 67.3226 63.7516C67.2934 63.7777 67.2555 63.7923 67.2162 63.7924ZM69.2322 65.4724C69.1993 65.4725 69.1672 65.4626 69.1401 65.4439C69.1131 65.4251 69.0925 65.3985 69.0811 65.3676C69.0698 65.3368 69.0682 65.3032 69.0766 65.2714C69.085 65.2396 69.1031 65.2111 69.1282 65.1899C69.8318 64.5917 70.5771 64.0444 71.3586 63.5524C71.3766 63.5406 71.3968 63.5326 71.4179 63.5288C71.439 63.525 71.4607 63.5255 71.4817 63.5303C71.5026 63.5351 71.5223 63.544 71.5398 63.5566C71.5572 63.5692 71.5719 63.5851 71.583 63.6035C71.5941 63.6218 71.6014 63.6423 71.6045 63.6635C71.6075 63.6848 71.6063 63.7064 71.6008 63.7272C71.5953 63.7479 71.5857 63.7674 71.5726 63.7843C71.5594 63.8013 71.543 63.8155 71.5242 63.826C70.7576 64.3089 70.0264 64.846 69.3362 65.4332C69.3074 65.4582 69.2705 65.4721 69.2322 65.4724ZM70.945 67.9236C70.9147 67.9236 70.8849 67.9151 70.8593 67.8989C70.8336 67.8827 70.8131 67.8595 70.8001 67.8321C70.7871 67.8047 70.7821 67.7741 70.7858 67.744C70.7895 67.7138 70.8018 67.6854 70.821 67.6619C71.537 66.7923 72.837 66.034 72.8922 66.002C72.9104 65.9904 72.9308 65.9826 72.9521 65.9791C72.9734 65.9756 72.9952 65.9764 73.0161 65.9816C73.0371 65.9867 73.0568 65.996 73.0741 66.009C73.0913 66.0219 73.1058 66.0382 73.1166 66.0569C73.1274 66.0756 73.1343 66.0963 73.1369 66.1177C73.1395 66.1391 73.1377 66.1608 73.1317 66.1816C73.1257 66.2023 73.1156 66.2216 73.1019 66.2383C73.0882 66.255 73.0713 66.2687 73.0522 66.2788C73.0386 66.286 71.7458 67.0411 71.0674 67.8651C71.0526 67.8833 71.0339 67.8979 71.0127 67.908C70.9916 67.9181 70.9685 67.9234 70.945 67.9236Z" fill="#570B7F"/>
<path d="M125.383 9.21401C125.383 9.21401 120.823 3.7236 116.416 7.48681C112.009 11.25 119.209 20.2068 126.201 23.3484C126.201 23.3484 137.6 12.734 134.952 7.62441C132.304 2.5148 126.535 5.4012 125.383 9.21401Z" fill="#BF0000"/>
<path d="M40.8188 95.2886C43.9516 94.4142 48.0716 91.6886 48.1132 91.6598C48.1307 91.6472 48.1505 91.6382 48.1715 91.6334C48.1926 91.6286 48.2143 91.6281 48.2356 91.6319C48.2568 91.6358 48.277 91.6439 48.295 91.6557C48.313 91.6676 48.3285 91.683 48.3404 91.7009C48.3523 91.7189 48.3605 91.7391 48.3644 91.7603C48.3683 91.7815 48.3679 91.8033 48.3632 91.8243C48.3585 91.8454 48.3496 91.8652 48.337 91.8827C48.3244 91.9003 48.3084 91.9151 48.29 91.9262C48.2484 91.9542 44.0868 94.7086 40.9052 95.5966C40.8648 95.6068 40.8219 95.6008 40.7858 95.5799C40.7498 95.559 40.7233 95.5249 40.712 95.4847C40.7007 95.4446 40.7056 95.4016 40.7255 95.365C40.7455 95.3283 40.779 95.3009 40.8188 95.2886Z" fill="#570B7F"/>
</svg>
