<svg width="22" height="20" viewBox="0 0 22 20" fill="none" xmlns="http://www.w3.org/2000/svg">
<path d="M21.4343 10.3L16.9343 19.3C16.7843 19.525 16.5593 19.75 16.2593 19.75H6.50928C6.05928 19.75 5.75928 19.45 5.75928 19C5.75928 18.55 6.05928 18.25 6.50928 18.25H15.8093L19.9343 10L15.8093 1.75H6.50928C6.05928 1.75 5.75928 1.45 5.75928 1C5.75928 0.55 6.05928 0.25 6.50928 0.25H16.2593C16.5593 0.25 16.7843 0.4 16.9343 0.7L21.4343 9.7C21.5093 9.925 21.5093 10.15 21.4343 10.375V10.3ZM6.50928 14.5C6.50928 14.95 6.80928 15.25 7.25928 15.25H15.5093V13.75H7.25928C6.80928 13.75 6.50928 14.05 6.50928 14.5ZM12.5093 9.25H4.25928C3.80928 9.25 3.50928 9.55 3.50928 10C3.50928 10.45 3.80928 10.75 4.25928 10.75H12.5093V9.25ZM15.5093 6.25V4.75H7.25928C6.80928 4.75 6.50928 5.05 6.50928 5.5C6.50928 5.95 6.80928 6.25 7.25928 6.25H15.5093ZM1.25928 9.25C0.809277 9.25 0.509277 9.55 0.509277 10C0.509277 10.45 0.809277 10.75 1.25928 10.75C1.70928 10.75 2.00928 10.45 2.00928 10C2.00928 9.55 1.70928 9.25 1.25928 9.25ZM3.50928 13.75C3.05928 13.75 2.75928 14.05 2.75928 14.5C2.75928 14.95 3.05928 15.25 3.50928 15.25C3.95928 15.25 4.25928 14.95 4.25928 14.5C4.25928 14.05 3.95928 13.75 3.50928 13.75ZM3.50928 6.25C3.95928 6.25 4.25928 5.95 4.25928 5.5C4.25928 5.05 3.95928 4.75 3.50928 4.75C3.05928 4.75 2.75928 5.05 2.75928 5.5C2.75928 5.95 3.05928 6.25 3.50928 6.25Z" fill="#D70365"/>
</svg>
