<svg width="24" height="25" viewBox="0 0 24 25" fill="none" xmlns="http://www.w3.org/2000/svg">
<path d="M15.7844 10.2763C15.8154 11.2712 15.6194 12.2063 15.2494 13.0493L19.9324 17.7322C20.6114 18.4202 20.9994 19.3473 20.9994 20.3173V20.7712C20.9994 21.4842 20.4214 22.0632 19.7074 22.0632H17.3524C16.6384 22.0632 16.0604 21.4842 16.0604 20.7712C16.0604 20.0712 15.5034 19.4992 14.8034 19.4802L14.7234 19.4782C14.0134 19.4582 13.4534 18.8713 13.4674 18.1613L13.4854 17.2212L12.3914 16.1273C11.1584 16.7883 9.66936 17.0582 8.11536 16.7512C5.57136 16.2502 3.53537 14.1682 3.09737 11.6132C2.38937 7.49625 5.64036 3.92824 9.66436 4.09524C12.9564 4.23124 15.6804 6.98427 15.7844 10.2763Z" stroke="#484C52" stroke-width="1.5" stroke-linecap="round" stroke-linejoin="round"/>
<path fill-rule="evenodd" clip-rule="evenodd" d="M10.9285 10.485C10.9285 9.63698 10.2415 8.94897 9.39247 8.94897C8.54347 8.94897 7.85547 9.63698 7.85547 10.485C7.85547 11.334 8.54347 12.022 9.39247 12.022C10.2415 12.022 10.9285 11.334 10.9285 10.485Z" stroke="#484C52" stroke-width="1.5" stroke-linecap="round" stroke-linejoin="round"/>
</svg>
